<svg width="1287.737451171875px" height="121.60000610351562px" xmlns="http://www.w3.org/2000/svg" viewBox="-393.86872558593745 14.199996948242188 1287.737451171875 121.60000610351562" style="background: rgba(0, 0, 0, 0);" preserveAspectRatio="xMidYMid"><defs><filter id="editing-vr"><feFlood flood-color="#f00" flood-opacity="0.7" result="c1"></feFlood><feFlood flood-color="#0000ff" flood-opacity="0.7" result="c3"></feFlood><feComposite operator="in" in="c1" in2="SourceAlpha" result="text-c1"></feComposite><feComposite operator="in" in="c3" in2="SourceAlpha" result="text-c3"></feComposite><feOffset in="text-c1" dx="4" dy="-3" result="text1"></feOffset><feOffset in="text-c3" dx="-4" dy="3" result="text3"></feOffset><feBlend in="SourceGraphic" in2="text1" mode="multiply" result="text4"></feBlend><feBlend in="text4" in2="text3" mode="multiply"></feBlend></filter></defs><g filter="url(#editing-vr)"><g transform="translate(-215.63503789901733, 98.99999618530273)"><path d="M2.69-39.68L2.69-39.68L2.69-39.68Q3.58-41.47 5.54-42.46L5.54-42.46L5.54-42.46Q7.49-43.46 10.18-43.46L10.18-43.46L10.18-43.46Q14.40-43.46 16.93-40.42L16.93-40.42L16.93-40.42Q19.46-37.38 19.46-30.72L19.46-30.72L19.46-7.87L34.11-42.18L41.66-42.18L43.39-9.79L43.20-7.94L58.43-42.18L67.20-42.18L46.72 0L33.09 0L31.81-19.46L23.36 0L7.94 0L6.02-30.72L6.02-30.72Q5.82-34.18 4.90-36.45L4.90-36.45L4.90-36.45Q3.97-38.72 2.69-39.68ZM96.64-7.10L96.64-7.10L96.64-7.10Q96.64-4.29 99.52-3.46L99.52-3.46L99.52-3.46Q98.82-1.09 96.06 0.19L96.06 0.19L96.06 0.19Q93.76 1.28 91.23 1.28L91.23 1.28L91.23 1.28Q88.70 1.28 87.39 0.61L87.39 0.61L87.39 0.61Q86.08-0.06 85.38-1.15L85.38-1.15L85.38-1.15Q84.22-2.82 84.22-5.95L84.22-5.95L84.22-5.95Q84.22-7.81 85.25-12.93L85.25-12.93L86.14-17.79L86.14-17.79Q87.23-23.36 87.23-25.41L87.23-25.41L87.23-25.41Q87.23-28.99 85.25-28.99L85.25-28.99L85.25-28.99Q82.75-28.99 81.15-25.34L81.15-25.34L81.15-25.34Q80.51-23.94 80.06-21.82L80.06-21.82L75.71 0L62.85 1.28L71.87-44.80L84.74-46.08L84.22-43.52L84.22-43.52Q82.43-33.66 80.90-30.34L80.90-30.34L80.90-30.34Q84.48-33.92 91.07-33.92L91.07-33.92L91.07-33.92Q98.05-33.92 99.33-29.31L99.33-29.31L99.33-29.31Q99.78-27.84 99.78-26.56L99.78-26.56L99.78-26.56Q99.78-25.28 99.68-24.29L99.68-24.29L99.68-24.29Q99.58-23.30 99.26-21.50L99.26-21.50L98.43-16.90L96.96-9.66L96.96-9.66Q96.64-8.19 96.64-7.10ZM130.62-10.82L130.62-10.82L130.62-10.82Q132.22-9.73 132.22-7.33L132.22-7.33L132.22-7.33Q132.22-4.93 131.01-3.39L131.01-3.39L131.01-3.39Q129.79-1.86 127.81-0.83L127.81-0.83L127.81-0.83Q123.71 1.28 119.30 1.28L119.30 1.28L119.30 1.28Q114.88 1.28 112.29 0.32L112.29 0.32L112.29 0.32Q109.70-0.64 107.97-2.43L107.97-2.43L107.97-2.43Q104.58-5.82 104.58-12.03L104.58-12.03L104.58-12.03Q104.58-21.70 109.82-27.58L109.82-27.58L109.82-27.58Q115.46-33.92 125.25-33.92L125.25-33.92L125.25-33.92Q131.33-33.92 134.34-31.36L134.34-31.36L134.34-31.36Q136.58-29.44 136.58-26.30L136.58-26.30L136.58-26.30Q136.58-15.04 117.12-15.04L117.12-15.04L117.12-15.04Q116.86-13.38 116.86-11.97L116.86-11.97L116.86-11.97Q116.86-9.02 118.18-7.90L118.18-7.90L118.18-7.90Q119.49-6.78 121.92-6.78L121.92-6.78L121.92-6.78Q124.35-6.78 126.94-7.90L126.94-7.90L126.94-7.90Q129.54-9.02 130.62-10.82ZM117.57-17.79L117.57-17.79L117.57-17.79Q122.11-17.79 124.74-20.61L124.74-20.61L124.74-20.61Q127.36-23.30 127.36-27.58L127.36-27.58L127.36-27.58Q127.36-29.06 126.82-29.86L126.82-29.86L126.82-29.86Q126.27-30.66 125.18-30.66L125.18-30.66L125.18-30.66Q124.10-30.66 123.17-30.24L123.17-30.24L123.17-30.24Q122.24-29.82 121.28-28.42L121.28-28.42L121.28-28.42Q118.91-25.22 117.57-17.79ZM158.78-17.98L158.78-17.98L158.78-17.98Q161.09-22.08 161.09-26.24L161.09-26.24L161.09-26.24Q161.09-28.99 159.10-28.99L159.10-28.99L159.10-28.99Q157.57-28.99 155.97-26.37L155.97-26.37L155.97-26.37Q154.30-23.74 153.79-20.35L153.79-20.35L150.46 0L137.22 1.28L143.74-32.64L154.30-33.92L153.15-27.46L153.15-27.46Q156.29-33.92 163.33-33.92L163.33-33.92L163.33-33.92Q167.04-33.92 169.06-32L169.06-32L169.06-32Q171.07-30.08 171.07-26.14L171.07-26.14L171.07-26.14Q171.07-22.21 168.48-19.71L168.48-19.71L168.48-19.71Q165.89-17.22 161.47-17.22L161.47-17.22L161.47-17.22Q159.55-17.22 158.78-17.98ZM198.02-10.82L198.02-10.82L198.02-10.82Q199.62-9.73 199.62-7.33L199.62-7.33L199.62-7.33Q199.62-4.93 198.40-3.39L198.40-3.39L198.40-3.39Q197.18-1.86 195.20-0.83L195.20-0.83L195.20-0.83Q191.10 1.28 186.69 1.28L186.69 1.28L186.69 1.28Q182.27 1.28 179.68 0.32L179.68 0.32L179.68 0.32Q177.09-0.64 175.36-2.43L175.36-2.43L175.36-2.43Q171.97-5.82 171.97-12.03L171.97-12.03L171.97-12.03Q171.97-21.70 177.22-27.58L177.22-27.58L177.22-27.58Q182.85-33.92 192.64-33.92L192.64-33.92L192.64-33.92Q198.72-33.92 201.73-31.36L201.73-31.36L201.73-31.36Q203.97-29.44 203.97-26.30L203.97-26.30L203.97-26.30Q203.97-15.04 184.51-15.04L184.51-15.04L184.51-15.04Q184.26-13.38 184.26-11.97L184.26-11.97L184.26-11.97Q184.26-9.02 185.57-7.90L185.57-7.90L185.57-7.90Q186.88-6.78 189.31-6.78L189.31-6.78L189.31-6.78Q191.74-6.78 194.34-7.90L194.34-7.90L194.34-7.90Q196.93-9.02 198.02-10.82ZM184.96-17.79L184.96-17.79L184.96-17.79Q189.50-17.79 192.13-20.61L192.13-20.61L192.13-20.61Q194.75-23.30 194.75-27.58L194.75-27.58L194.75-27.58Q194.75-29.06 194.21-29.86L194.21-29.86L194.21-29.86Q193.66-30.66 192.58-30.66L192.58-30.66L192.58-30.66Q191.49-30.66 190.56-30.24L190.56-30.24L190.56-30.24Q189.63-29.82 188.67-28.42L188.67-28.42L188.67-28.42Q186.30-25.22 184.96-17.79ZM260.86-26.56L260.86-26.56L260.86-26.56Q260.86 0.70 231.30 0.70L231.30 0.70L231.30 0.70Q226.56 0.70 218.75-0.45L218.75-0.45L225.92-38.27L225.92-38.27Q226.43-40.83 226.75-42.30L226.75-42.30L226.75-42.30Q236.48-43.01 240.80-43.01L240.80-43.01L240.80-43.01Q245.12-43.01 249.09-42.11L249.09-42.11L249.09-42.11Q253.06-41.22 255.68-39.23L255.68-39.23L255.68-39.23Q260.86-35.33 260.86-26.56ZM247.68-28.93L247.68-28.93L247.68-28.93Q247.68-38.46 240.83-38.46L240.83-38.46L240.19-38.46L240.19-38.46Q239.87-38.46 239.55-38.40L239.55-38.40L232.96-4.03L232.96-4.03Q233.22-3.90 233.47-3.90L233.47-3.90L233.98-3.90L233.98-3.90Q236.35-3.90 238.82-5.38L238.82-5.38L238.82-5.38Q241.28-6.85 243.20-9.86L243.20-9.86L243.20-9.86Q247.68-16.83 247.68-28.93ZM266.91-1.92L266.91-1.92L266.91-1.92Q265.41-3.58 264.74-6.21L264.74-6.21L264.74-6.21Q264.06-8.83 264.06-13.12L264.06-13.12L264.06-13.12Q264.06-17.41 265.54-21.31L265.54-21.31L265.54-21.31Q267.01-25.22 269.70-28.03L269.70-28.03L269.70-28.03Q275.20-33.92 284.29-33.92L284.29-33.92L284.29-33.92Q287.55-33.92 289.92-32.83L289.92-32.83L300.86-33.92L296.13-8.96L296.13-8.96Q295.94-8.19 295.94-6.78L295.94-6.78L295.94-6.78Q295.94-5.38 296.80-4.48L296.80-4.48L296.80-4.48Q297.66-3.58 298.94-3.46L298.94-3.46L298.94-3.46Q298.30-1.28 295.97 0L295.97 0L295.97 0Q293.63 1.28 291.01 1.28L291.01 1.28L291.01 1.28Q288.38 1.28 286.62 0.29L286.62 0.29L286.62 0.29Q284.86-0.70 284.35-2.37L284.35-2.37L284.35-2.37Q283.33-0.77 281.15 0.26L281.15 0.26L281.15 0.26Q278.98 1.28 276.06 1.28L276.06 1.28L276.06 1.28Q273.15 1.28 270.78 0.51L270.78 0.51L270.78 0.51Q268.42-0.26 266.91-1.92ZM280.42-27.90L280.42-27.90L280.42-27.90Q279.68-26.75 279.04-24.80L279.04-24.80L279.04-24.80Q278.40-22.85 277.34-17.63L277.34-17.63L277.34-17.63Q276.29-12.42 276.29-8.70L276.29-8.70L276.29-8.70Q276.29-4.99 276.86-3.90L276.86-3.90L276.86-3.90Q277.44-2.82 278.46-2.82L278.46-2.82L278.46-2.82Q280.51-2.82 282.02-4.77L282.02-4.77L282.02-4.77Q283.52-6.72 284.10-10.18L284.10-10.18L287.49-28.93L287.49-28.93Q286.14-30.08 284.58-30.08L284.58-30.08L284.58-30.08Q283.01-30.08 282.08-29.57L282.08-29.57L282.08-29.57Q281.15-29.06 280.42-27.90ZM305.34-6.40L305.34-6.40L305.34-6.40Q305.34-8.13 306.24-12.48L306.24-12.48L309.63-29.76L305.86-29.76L306.11-31.68L306.11-31.68Q313.79-33.98 321.22-39.62L321.22-39.62L324.29-39.62L322.75-32.64L327.74-32.64L327.17-29.76L322.24-29.76L318.98-12.48L318.98-12.48Q318.14-8.51 318.14-7.17L318.14-7.17L318.14-7.17Q318.14-4.10 320.83-3.46L320.83-3.46L320.83-3.46Q320.19-1.28 317.89 0L317.89 0L317.89 0Q315.58 1.28 312.32 1.28L312.32 1.28L312.32 1.28Q309.06 1.28 307.20-0.77L307.20-0.77L307.20-0.77Q305.34-2.82 305.34-6.40ZM329.95-1.92L329.95-1.92L329.95-1.92Q328.45-3.58 327.78-6.21L327.78-6.21L327.78-6.21Q327.10-8.83 327.10-13.12L327.10-13.12L327.10-13.12Q327.10-17.41 328.58-21.31L328.58-21.31L328.58-21.31Q330.05-25.22 332.74-28.03L332.74-28.03L332.74-28.03Q338.24-33.92 347.33-33.92L347.33-33.92L347.33-33.92Q350.59-33.92 352.96-32.83L352.96-32.83L363.90-33.92L359.17-8.96L359.17-8.96Q358.98-8.19 358.98-6.78L358.98-6.78L358.98-6.78Q358.98-5.38 359.84-4.48L359.84-4.48L359.84-4.48Q360.70-3.58 361.98-3.46L361.98-3.46L361.98-3.46Q361.34-1.28 359.01 0L359.01 0L359.01 0Q356.67 1.28 354.05 1.28L354.05 1.28L354.05 1.28Q351.42 1.28 349.66 0.29L349.66 0.29L349.66 0.29Q347.90-0.70 347.39-2.37L347.39-2.37L347.39-2.37Q346.37-0.77 344.19 0.26L344.19 0.26L344.19 0.26Q342.02 1.28 339.10 1.28L339.10 1.28L339.10 1.28Q336.19 1.28 333.82 0.51L333.82 0.51L333.82 0.51Q331.46-0.26 329.95-1.92ZM343.46-27.90L343.46-27.90L343.46-27.90Q342.72-26.75 342.08-24.80L342.08-24.80L342.08-24.80Q341.44-22.85 340.38-17.63L340.38-17.63L340.38-17.63Q339.33-12.42 339.33-8.70L339.33-8.70L339.33-8.70Q339.33-4.99 339.90-3.90L339.90-3.90L339.90-3.90Q340.48-2.82 341.50-2.82L341.50-2.82L341.50-2.82Q343.55-2.82 345.06-4.77L345.06-4.77L345.06-4.77Q346.56-6.72 347.14-10.18L347.14-10.18L350.53-28.93L350.53-28.93Q349.18-30.08 347.62-30.08L347.62-30.08L347.62-30.08Q346.05-30.08 345.12-29.57L345.12-29.57L345.12-29.57Q344.19-29.06 343.46-27.90ZM422.08-26.56L422.08-26.56L422.08-26.56Q422.08 0.70 392.51 0.70L392.51 0.70L392.51 0.70Q387.78 0.70 379.97-0.45L379.97-0.45L387.14-38.27L387.14-38.27Q387.65-40.83 387.97-42.30L387.97-42.30L387.97-42.30Q397.70-43.01 402.02-43.01L402.02-43.01L402.02-43.01Q406.34-43.01 410.30-42.11L410.30-42.11L410.30-42.11Q414.27-41.22 416.90-39.23L416.90-39.23L416.90-39.23Q422.08-35.33 422.08-26.56ZM408.90-28.93L408.90-28.93L408.90-28.93Q408.90-38.46 402.05-38.46L402.05-38.46L401.41-38.46L401.41-38.46Q401.09-38.46 400.77-38.40L400.77-38.40L394.18-4.03L394.18-4.03Q394.43-3.90 394.69-3.90L394.69-3.90L395.20-3.90L395.20-3.90Q397.57-3.90 400.03-5.38L400.03-5.38L400.03-5.38Q402.50-6.85 404.42-9.86L404.42-9.86L404.42-9.86Q408.90-16.83 408.90-28.93ZM445.38-17.98L445.38-17.98L445.38-17.98Q447.68-22.08 447.68-26.24L447.68-26.24L447.68-26.24Q447.68-28.99 445.70-28.99L445.70-28.99L445.70-28.99Q444.16-28.99 442.56-26.37L442.56-26.37L442.56-26.37Q440.90-23.74 440.38-20.35L440.38-20.35L437.06 0L423.81 1.28L430.34-32.64L440.90-33.92L439.74-27.46L439.74-27.46Q442.88-33.92 449.92-33.92L449.92-33.92L449.92-33.92Q453.63-33.92 455.65-32L455.65-32L455.65-32Q457.66-30.08 457.66-26.14L457.66-26.14L457.66-26.14Q457.66-22.21 455.07-19.71L455.07-19.71L455.07-19.71Q452.48-17.22 448.06-17.22L448.06-17.22L448.06-17.22Q446.14-17.22 445.38-17.98ZM474.05-3.52L474.05-3.52L474.05-3.52Q472.06 1.28 465.73 1.28L465.73 1.28L465.73 1.28Q462.46 1.28 460.42-0.96L460.42-0.96L460.42-0.96Q458.69-2.94 458.69-4.93L458.69-4.93L458.69-4.93Q458.69-10.11 461.06-20.22L461.06-20.22L463.42-32.64L476.42-33.92L472.51-13.70L472.51-13.70Q471.42-8.96 471.42-7.30L471.42-7.30L471.42-7.30Q471.42-3.65 474.05-3.52ZM464.58-41.54L464.58-41.54L464.58-41.54Q464.58-44.03 466.66-45.38L466.66-45.38L466.66-45.38Q468.74-46.72 471.74-46.72L471.74-46.72L471.74-46.72Q474.75-46.72 476.58-45.38L476.58-45.38L476.58-45.38Q478.40-44.03 478.40-41.54L478.40-41.54L478.40-41.54Q478.40-39.04 476.38-37.76L476.38-37.76L476.38-37.76Q474.37-36.48 471.36-36.48L471.36-36.48L471.36-36.48Q468.35-36.48 466.46-37.76L466.46-37.76L466.46-37.76Q464.58-39.04 464.58-41.54ZM502.72-31.55L502.72-31.55L502.72-31.55Q504.83-33.92 508.48-33.92L508.48-33.92L508.48-33.92Q510.72-33.92 512.45-32.70L512.45-32.70L512.45-32.70Q514.18-31.49 514.18-29.22L514.18-29.22L514.18-29.22Q514.18-26.94 513.47-24.51L513.47-24.51L513.47-24.51Q512.77-22.08 511.68-19.58L511.68-19.58L511.68-19.58Q509.50-14.72 506.50-10.69L506.50-10.69L506.50-10.69Q502.27-4.86 498.21-1.79L498.21-1.79L498.21-1.79Q494.14 1.28 489.73 1.28L489.73 1.28L489.73 1.28Q486.14 1.28 483.97 0.45L483.97 0.45L483.97 0.45Q483.58-12.99 483.10-17.79L483.10-17.79L483.10-17.79Q482.62-22.59 482.24-25.22L482.24-25.22L482.24-25.22Q481.60-30.34 479.68-31.55L479.68-31.55L479.68-31.55Q481.15-32.83 482.59-33.38L482.59-33.38L482.59-33.38Q484.03-33.92 487.01-33.92L487.01-33.92L487.01-33.92Q489.98-33.92 492.10-31.58L492.10-31.58L492.10-31.58Q494.21-29.25 494.62-25.12L494.62-25.12L494.62-25.12Q495.04-20.99 495.04-16L495.04-16L495.04-16Q495.04-11.01 494.66-4.99L494.66-4.99L494.66-4.99Q496.64-6.40 498.75-10.69L498.75-10.69L498.75-10.69Q501.63-16.64 502.66-23.81L502.66-23.81L502.66-23.81Q502.98-25.98 502.98-28.29L502.98-28.29L502.98-28.29Q502.98-30.59 502.72-31.55ZM541.82-10.82L541.82-10.82L541.82-10.82Q543.42-9.73 543.42-7.33L543.42-7.33L543.42-7.33Q543.42-4.93 542.21-3.39L542.21-3.39L542.21-3.39Q540.99-1.86 539.01-0.83L539.01-0.83L539.01-0.83Q534.91 1.28 530.50 1.28L530.50 1.28L530.50 1.28Q526.08 1.28 523.49 0.32L523.49 0.32L523.49 0.32Q520.90-0.64 519.17-2.43L519.17-2.43L519.17-2.43Q515.78-5.82 515.78-12.03L515.78-12.03L515.78-12.03Q515.78-21.70 521.02-27.58L521.02-27.58L521.02-27.58Q526.66-33.92 536.45-33.92L536.45-33.92L536.45-33.92Q542.53-33.92 545.54-31.36L545.54-31.36L545.54-31.36Q547.78-29.44 547.78-26.30L547.78-26.30L547.78-26.30Q547.78-15.04 528.32-15.04L528.32-15.04L528.32-15.04Q528.06-13.38 528.06-11.97L528.06-11.97L528.06-11.97Q528.06-9.02 529.38-7.90L529.38-7.90L529.38-7.90Q530.69-6.78 533.12-6.78L533.12-6.78L533.12-6.78Q535.55-6.78 538.14-7.90L538.14-7.90L538.14-7.90Q540.74-9.02 541.82-10.82ZM528.77-17.79L528.77-17.79L528.77-17.79Q533.31-17.79 535.94-20.61L535.94-20.61L535.94-20.61Q538.56-23.30 538.56-27.58L538.56-27.58L538.56-27.58Q538.56-29.06 538.02-29.86L538.02-29.86L538.02-29.86Q537.47-30.66 536.38-30.66L536.38-30.66L536.38-30.66Q535.30-30.66 534.37-30.24L534.37-30.24L534.37-30.24Q533.44-29.82 532.48-28.42L532.48-28.42L532.48-28.42Q530.11-25.22 528.77-17.79ZM569.09-22.46L569.09-22.46L569.09-22.46Q569.98-24.83 569.98-26.88L569.98-26.88L569.98-26.88Q569.98-30.66 566.91-30.66L566.91-30.66L566.91-30.66Q565.31-30.66 564-29.22L564-29.22L564-29.22Q562.69-27.78 562.69-25.98L562.69-25.98L562.69-25.98Q562.69-24.70 563.71-23.68L563.71-23.68L563.71-23.68Q565.18-22.27 568.96-19.97L568.96-19.97L568.96-19.97Q572.74-17.66 574.18-15.78L574.18-15.78L574.18-15.78Q575.62-13.89 575.62-11.30L575.62-11.30L575.62-11.30Q575.62-8.70 574.37-6.34L574.37-6.34L574.37-6.34Q573.12-3.97 570.88-2.30L570.88-2.30L570.88-2.30Q566.08 1.28 558.40 1.28L558.40 1.28L558.40 1.28Q554.24 1.28 551.04-0.90L551.04-0.90L551.04-0.90Q547.84-3.01 547.84-5.50L547.84-5.50L547.84-5.50Q547.84-8 549.66-9.47L549.66-9.47L549.66-9.47Q551.49-10.94 554.18-10.94L554.18-10.94L554.18-10.94Q556.86-10.94 558.53-9.92L558.53-9.92L558.53-9.92Q557.70-7.81 557.70-6.40L557.70-6.40L557.70-6.40Q557.70-2.18 561.28-2.18L561.28-2.18L561.28-2.18Q562.82-2.18 563.84-3.14L563.84-3.14L563.84-3.14Q564.86-4.10 564.86-5.76L564.86-5.76L564.86-5.76Q564.86-9.02 559.36-12.48L559.36-12.48L559.36-12.48Q554.88-15.42 553.86-16.58L553.86-16.58L553.86-16.58Q552.13-18.62 552.13-21.18L552.13-21.18L552.13-21.18Q552.13-23.74 553.34-26.18L553.34-26.18L553.34-26.18Q554.56-28.61 556.80-30.34L556.80-30.34L556.80-30.34Q561.47-33.92 569.60-33.92L569.60-33.92L569.60-33.92Q573.76-33.92 576.22-32.26L576.22-32.26L576.22-32.26Q578.69-30.59 578.69-27.78L578.69-27.78L578.69-27.78Q578.69-24.96 576.99-23.36L576.99-23.36L576.99-23.36Q575.30-21.76 572.22-21.76L572.22-21.76L572.22-21.76Q570.11-21.76 569.09-22.46ZM607.49 0L593.54 0L601.66-42.24L615.74-42.24L607.49 0ZM644.22 1.28L644.22 1.28L644.22 1.28Q636.48 1.28 636.48-4.74L636.48-4.74L636.48-4.74Q636.54-6.40 637.06-9.22L637.06-9.22L638.21-15.10L638.21-15.10Q639.94-23.42 639.94-25.28L639.94-25.28L639.94-25.28Q639.94-28.99 637.76-28.99L637.76-28.99L637.76-28.99Q634.11-28.99 632.19-19.46L632.19-19.46L628.42 0L615.55 1.28L622.21-32.70L632.70-33.92L631.68-27.65L631.68-27.65Q634.69-33.92 643.90-33.92L643.90-33.92L643.90-33.92Q648.38-33.92 650.27-32.03L650.27-32.03L650.27-32.03Q652.16-30.14 652.16-25.92L652.16-25.92L652.16-25.92Q652.16-21.95 650.11-12.67L650.11-12.67L650.11-12.67Q649.15-8.51 649.15-6.94L649.15-6.94L649.15-6.94Q649.15-5.38 650.02-4.48L650.02-4.48L650.02-4.48Q650.88-3.58 652.16-3.46L652.16-3.46L652.16-3.46Q651.52-1.28 649.31 0L649.31 0L649.31 0Q647.10 1.28 644.22 1.28ZM684.35 1.28L684.35 1.28L684.35 1.28Q676.61 1.28 676.61-4.74L676.61-4.74L676.61-4.74Q676.67-6.40 677.18-9.22L677.18-9.22L678.34-15.10L678.34-15.10Q680.06-23.42 680.06-25.28L680.06-25.28L680.06-25.28Q680.06-28.99 677.89-28.99L677.89-28.99L677.89-28.99Q674.24-28.99 672.32-19.46L672.32-19.46L668.54 0L655.68 1.28L662.34-32.70L672.83-33.92L671.81-27.65L671.81-27.65Q674.82-33.92 684.03-33.92L684.03-33.92L684.03-33.92Q688.51-33.92 690.40-32.03L690.40-32.03L690.40-32.03Q692.29-30.14 692.29-25.92L692.29-25.92L692.29-25.92Q692.29-21.95 690.24-12.67L690.24-12.67L690.24-12.67Q689.28-8.51 689.28-6.94L689.28-6.94L689.28-6.94Q689.28-5.38 690.14-4.48L690.14-4.48L690.14-4.48Q691.01-3.58 692.29-3.46L692.29-3.46L692.29-3.46Q691.65-1.28 689.44 0L689.44 0L689.44 0Q687.23 1.28 684.35 1.28ZM711.36 1.28L711.36 1.28L711.36 1.28Q697.28 1.28 697.28-11.97L697.28-11.97L697.28-11.97Q697.28-21.38 702.46-27.46L702.46-27.46L702.46-27.46Q707.97-33.92 717.50-33.92L717.50-33.92L717.50-33.92Q724.42-33.92 727.94-30.72L727.94-30.72L727.94-30.72Q731.46-27.52 731.46-20.80L731.46-20.80L731.46-20.80Q731.46-10.56 725.95-4.61L725.95-4.61L725.95-4.61Q720.58 1.28 711.36 1.28ZM713.02-26.56L713.02-26.56L713.02-26.56Q712.26-24.83 711.65-22.24L711.65-22.24L711.65-22.24Q711.04-19.65 710.27-15.55L710.27-15.55L710.27-15.55Q709.50-11.46 709.50-6.40L709.50-6.40L709.50-6.40Q709.50-4.74 710.05-3.65L710.05-3.65L710.05-3.65Q710.59-2.56 712.06-2.56L712.06-2.56L712.06-2.56Q713.54-2.56 714.46-3.26L714.46-3.26L714.46-3.26Q715.39-3.97 716.10-5.63L716.10-5.63L716.10-5.63Q717.38-8.58 718.40-14.05L718.40-14.05L718.40-14.05Q719.42-19.52 719.52-21.89L719.52-21.89L719.52-21.89Q719.62-24.26 719.62-26.02L719.62-26.02L719.62-26.02Q719.62-27.78 719.10-28.93L719.10-28.93L719.10-28.93Q718.59-30.08 717.15-30.08L717.15-30.08L717.15-30.08Q715.71-30.08 714.75-29.18L714.75-29.18L714.75-29.18Q713.79-28.29 713.02-26.56ZM758.46-31.55L758.46-31.55L758.46-31.55Q760.58-33.92 764.22-33.92L764.22-33.92L764.22-33.92Q766.46-33.92 768.19-32.70L768.19-32.70L768.19-32.70Q769.92-31.49 769.92-29.22L769.92-29.22L769.92-29.22Q769.92-26.94 769.22-24.51L769.22-24.51L769.22-24.51Q768.51-22.08 767.42-19.58L767.42-19.58L767.42-19.58Q765.25-14.72 762.24-10.69L762.24-10.69L762.24-10.69Q758.02-4.86 753.95-1.79L753.95-1.79L753.95-1.79Q749.89 1.28 745.47 1.28L745.47 1.28L745.47 1.28Q741.89 1.28 739.71 0.45L739.71 0.45L739.71 0.45Q739.33-12.99 738.85-17.79L738.85-17.79L738.85-17.79Q738.37-22.59 737.98-25.22L737.98-25.22L737.98-25.22Q737.34-30.34 735.42-31.55L735.42-31.55L735.42-31.55Q736.90-32.83 738.34-33.38L738.34-33.38L738.34-33.38Q739.78-33.92 742.75-33.92L742.75-33.92L742.75-33.92Q745.73-33.92 747.84-31.58L747.84-31.58L747.84-31.58Q749.95-29.25 750.37-25.12L750.37-25.12L750.37-25.12Q750.78-20.99 750.78-16L750.78-16L750.78-16Q750.78-11.01 750.40-4.99L750.40-4.99L750.40-4.99Q752.38-6.40 754.50-10.69L754.50-10.69L754.50-10.69Q757.38-16.64 758.40-23.81L758.40-23.81L758.40-23.81Q758.72-25.98 758.72-28.29L758.72-28.29L758.72-28.29Q758.72-30.59 758.46-31.55ZM774.43-1.92L774.43-1.92L774.43-1.92Q772.93-3.58 772.26-6.21L772.26-6.21L772.26-6.21Q771.58-8.83 771.58-13.12L771.58-13.12L771.58-13.12Q771.58-17.41 773.06-21.31L773.06-21.31L773.06-21.31Q774.53-25.22 777.22-28.03L777.22-28.03L777.22-28.03Q782.72-33.92 791.81-33.92L791.81-33.92L791.81-33.92Q795.07-33.92 797.44-32.83L797.44-32.83L808.38-33.92L803.65-8.96L803.65-8.96Q803.46-8.19 803.46-6.78L803.46-6.78L803.46-6.78Q803.46-5.38 804.32-4.48L804.32-4.48L804.32-4.48Q805.18-3.58 806.46-3.46L806.46-3.46L806.46-3.46Q805.82-1.28 803.49 0L803.49 0L803.49 0Q801.15 1.28 798.53 1.28L798.53 1.28L798.53 1.28Q795.90 1.28 794.14 0.29L794.14 0.29L794.14 0.29Q792.38-0.70 791.87-2.37L791.87-2.37L791.87-2.37Q790.85-0.77 788.67 0.26L788.67 0.26L788.67 0.26Q786.50 1.28 783.58 1.28L783.58 1.28L783.58 1.28Q780.67 1.28 778.30 0.51L778.30 0.51L778.30 0.51Q775.94-0.26 774.43-1.92ZM787.94-27.90L787.94-27.90L787.94-27.90Q787.20-26.75 786.56-24.80L786.56-24.80L786.56-24.80Q785.92-22.85 784.86-17.63L784.86-17.63L784.86-17.63Q783.81-12.42 783.81-8.70L783.81-8.70L783.81-8.70Q783.81-4.99 784.38-3.90L784.38-3.90L784.38-3.90Q784.96-2.82 785.98-2.82L785.98-2.82L785.98-2.82Q788.03-2.82 789.54-4.77L789.54-4.77L789.54-4.77Q791.04-6.72 791.62-10.18L791.62-10.18L795.01-28.93L795.01-28.93Q793.66-30.08 792.10-30.08L792.10-30.08L792.10-30.08Q790.53-30.08 789.60-29.57L789.60-29.57L789.60-29.57Q788.67-29.06 787.94-27.90ZM812.86-6.40L812.86-6.40L812.86-6.40Q812.86-8.13 813.76-12.48L813.76-12.48L817.15-29.76L813.38-29.76L813.63-31.68L813.63-31.68Q821.31-33.98 828.74-39.62L828.74-39.62L831.81-39.62L830.27-32.64L835.26-32.64L834.69-29.76L829.76-29.76L826.50-12.48L826.50-12.48Q825.66-8.51 825.66-7.17L825.66-7.17L825.66-7.17Q825.66-4.10 828.35-3.46L828.35-3.46L828.35-3.46Q827.71-1.28 825.41 0L825.41 0L825.41 0Q823.10 1.28 819.84 1.28L819.84 1.28L819.84 1.28Q816.58 1.28 814.72-0.77L814.72-0.77L814.72-0.77Q812.86-2.82 812.86-6.40ZM850.30-3.52L850.30-3.52L850.30-3.52Q848.32 1.28 841.98 1.28L841.98 1.28L841.98 1.28Q838.72 1.28 836.67-0.96L836.67-0.96L836.67-0.96Q834.94-2.94 834.94-4.93L834.94-4.93L834.94-4.93Q834.94-10.11 837.31-20.22L837.31-20.22L839.68-32.64L852.67-33.92L848.77-13.70L848.77-13.70Q847.68-8.96 847.68-7.30L847.68-7.30L847.68-7.30Q847.68-3.65 850.30-3.52ZM840.83-41.54L840.83-41.54L840.83-41.54Q840.83-44.03 842.91-45.38L842.91-45.38L842.91-45.38Q844.99-46.72 848.00-46.72L848.00-46.72L848.00-46.72Q851.01-46.72 852.83-45.38L852.83-45.38L852.83-45.38Q854.66-44.03 854.66-41.54L854.66-41.54L854.66-41.54Q854.66-39.04 852.64-37.76L852.64-37.76L852.64-37.76Q850.62-36.48 847.62-36.48L847.62-36.48L847.62-36.48Q844.61-36.48 842.72-37.76L842.72-37.76L842.72-37.76Q840.83-39.04 840.83-41.54ZM869.70 1.28L869.70 1.28L869.70 1.28Q855.62 1.28 855.62-11.97L855.62-11.97L855.62-11.97Q855.62-21.38 860.80-27.46L860.80-27.46L860.80-27.46Q866.30-33.92 875.84-33.92L875.84-33.92L875.84-33.92Q882.75-33.92 886.27-30.72L886.27-30.72L886.27-30.72Q889.79-27.52 889.79-20.80L889.79-20.80L889.79-20.80Q889.79-10.56 884.29-4.61L884.29-4.61L884.29-4.61Q878.91 1.28 869.70 1.28ZM871.36-26.56L871.36-26.56L871.36-26.56Q870.59-24.83 869.98-22.24L869.98-22.24L869.98-22.24Q869.38-19.65 868.61-15.55L868.61-15.55L868.61-15.55Q867.84-11.46 867.84-6.40L867.84-6.40L867.84-6.40Q867.84-4.74 868.38-3.65L868.38-3.65L868.38-3.65Q868.93-2.56 870.40-2.56L870.40-2.56L870.40-2.56Q871.87-2.56 872.80-3.26L872.80-3.26L872.80-3.26Q873.73-3.97 874.43-5.63L874.43-5.63L874.43-5.63Q875.71-8.58 876.74-14.05L876.74-14.05L876.74-14.05Q877.76-19.52 877.86-21.89L877.86-21.89L877.86-21.89Q877.95-24.26 877.95-26.02L877.95-26.02L877.95-26.02Q877.95-27.78 877.44-28.93L877.44-28.93L877.44-28.93Q876.93-30.08 875.49-30.08L875.49-30.08L875.49-30.08Q874.05-30.08 873.09-29.18L873.09-29.18L873.09-29.18Q872.13-28.29 871.36-26.56ZM920.64 1.28L920.64 1.28L920.64 1.28Q912.90 1.28 912.90-4.74L912.90-4.74L912.90-4.74Q912.96-6.40 913.47-9.22L913.47-9.22L914.62-15.10L914.62-15.10Q916.35-23.42 916.35-25.28L916.35-25.28L916.35-25.28Q916.35-28.99 914.18-28.99L914.18-28.99L914.18-28.99Q910.53-28.99 908.61-19.46L908.61-19.46L904.83 0L891.97 1.28L898.62-32.70L909.12-33.92L908.10-27.65L908.10-27.65Q911.10-33.92 920.32-33.92L920.32-33.92L920.32-33.92Q924.80-33.92 926.69-32.03L926.69-32.03L926.69-32.03Q928.58-30.14 928.58-25.92L928.58-25.92L928.58-25.92Q928.58-21.95 926.53-12.67L926.53-12.67L926.53-12.67Q925.57-8.51 925.57-6.94L925.57-6.94L925.57-6.94Q925.57-5.38 926.43-4.48L926.43-4.48L926.43-4.48Q927.30-3.58 928.58-3.46L928.58-3.46L928.58-3.46Q927.94-1.28 925.73 0L925.73 0L925.73 0Q923.52 1.28 920.64 1.28Z" fill="#ffffff"></path></g></g><style>text {
  font-size: 64px;
  font-family: Arial Black;
  dominant-baseline: central;
  text-anchor: middle;
}</style></svg>