<?xml version="1.0" encoding="utf-8"?>
<!DOCTYPE svg PUBLIC "-//W3C//DTD SVG 1.0//EN" "http://www.w3.org/TR/2001/REC-SVG-20010904/DTD/svg10.dtd">
<svg version="1.0" xmlns="http://www.w3.org/2000/svg" width="20000px" height="1556px" viewBox="0 0 20000 1556" preserveAspectRatio="xMidYMid meet">
 <g fill="#c2fcfa">
  <path d="M2962 1081.80 c0 -1.40 -19.80 -1.60 -64.60 -0.60 l-64.80 1.40 -122.20 -117.20 -122.20 -117.40 -85.40 0 -85.20 0 1.40 117 1.40 117 -37 0 c-31 0 -37.20 -0.40 -38.20 -3 -0.80 -2.20 -4.60 -3 -16.20 -3 l-15 0 0 -22 c0 -18.20 -0.60 -22 -3 -22 -2.60 0 -3 -32 -2.60 -281.40 l0.60 -281.60 254.80 -0.60 c274 -0.40 275.80 -0.40 307 9.80 10.40 3.40 14.20 5.60 15.80 9.60 1.20 2.80 7 10.40 12.60 16.60 5.80 6.20 13.20 17 16.60 24 3.40 6.80 8.40 14.60 10.80 17.20 4 4.20 4.40 6.60 4.20 25.60 0 11.40 0.60 20.80 1.60 20.80 0.80 0 1.60 28.40 1.60 63 0 38 -0.80 63 -1.80 63 -1.20 0 -1.80 10.20 -1.60 24.60 0.40 20.80 -0.20 26.60 -4.40 39 -2.60 8 -5.80 15.80 -7.40 17.40 -1.60 1.40 -2.80 3.60 -2.80 4.80 0 1.20 -1.40 2.20 -3 2.20 -1.60 0 -3 1.60 -3 3.60 0 4.60 -6 10.40 -10.60 10.40 -1.80 0 -3.40 1 -3.40 2 0 1.20 -1.40 2 -3 2 -1.60 0 -3 1 -3 2 0 1.20 -1.40 2 -3 2 -1.60 0 -4.60 1.80 -6.60 4 -4.20 4.60 -14.40 8 -23.80 8 -3.40 0 -6.60 0.80 -7 1.80 -1.20 3.40 -34 6.60 -53.60 5.40 -10.40 -0.60 -28.80 -0.40 -40.80 0.40 l-21.80 1.40 15 13 c8.20 7.20 55.60 47.60 105.20 89.80 49.80 42.40 90.40 78 90.40 79.40 0 1.40 -1.20 2.80 -2.80 3.20 -1.80 0.40 7 9 20.40 20.60 l23.20 20 -7.40 0.60 c-7.80 0.60 -9 2 -5 6 1.80 1.80 1 2.40 -4 2.40 -3.60 0 -6.40 -1 -6.40 -2.20z m-181 -326.60 c18.40 -4.80 26.60 -11 34.20 -25.20 3.40 -6.40 3.80 -12.40 3.80 -71 0 -71.60 -0.40 -73.80 -13 -86.60 -15 -14.80 -8.40 -14.40 -208.40 -14.40 l-177 0 -1.20 43.60 c-2.40 74.40 -1.80 150.20 1.20 153.40 3.60 4 345.20 4.40 360.40 0.20z"/>
  <path d="M3320 1081.20 c0 -2.40 -2 -3.20 -8.40 -3.20 -4.80 0 -12 -0.60 -16 -1.20 l-7.60 -1.40 0 -20.60 c0 -17.20 -0.60 -20.80 -3 -20.80 -2.60 0 -3 -32.80 -3 -283 l0 -283 37.60 0 37.40 0 129 115.60 c283 253 327.40 293.40 338.80 307.20 6.40 7.80 12.60 14.20 13.80 14.20 1 0 6.40 5 11.80 11 l9.80 11 -1 -10 c-1.60 -14.80 -5.20 -435 -4 -442.60 l1.20 -6.40 32.80 0 c27.80 0 32.80 0.40 32.80 3 0 2.40 3.20 3 16 3 l16 0 0 23 c0 19.20 0.60 23 3 23 2.60 0 3 32.20 3 278.20 0 240.60 -0.40 278.40 -3 281 -2.20 2.40 -9 2.80 -34.60 2.40 l-31.80 -0.60 -238.20 -215.40 c-131 -118.40 -239.60 -218.20 -241.60 -221.60 -2 -3.20 -4.40 -6 -5.40 -6 -0.80 0 -1 1 -0.40 2 3.40 5.60 -2 0.60 -11.40 -10.60 l-10.60 -12.40 -0.60 125.40 c-0.60 89.40 -0.20 125.60 1.40 125.60 1.60 0 2.20 31.40 2.20 107 l0 107 -28.40 0 c-15.80 0 -30.60 0.60 -33 1.20 -3.40 1 -4.60 0.40 -4.60 -2z"/>
  <path d="M5831.20 1081 c1 -2.60 -1.40 -3 -15.40 -3.20 -9.20 0 -20.60 0 -25 0.20 -4.60 0.20 -9 -0.60 -9.60 -1.60 -0.60 -1 3.80 -10.80 9.60 -21.60 7.80 -14.40 10 -20 8 -20.40 -1.60 -0.40 -2.80 -2.20 -2.80 -4 0.20 -1.80 68.80 -129 152.60 -282.40 l152.40 -279 52.60 -0.60 c32.60 -0.20 52.40 0.20 52.40 1.40 0 1.20 2.40 3.20 5.60 4.60 3.80 1.80 9 9.20 17.40 24 6.80 12 13.20 21.20 14.60 21 3 -0.40 308.40 546.80 308.40 552.60 0 10.20 1 10 -52.20 10 -42.60 0 -50 -0.40 -51 -3 -0.80 -1.60 -3.20 -3 -5.60 -3 -3.40 0 -6.40 -4.20 -15.20 -20.80 -7.40 -14.20 -12.40 -21.20 -15.60 -22.40 -3.60 -1.40 -11.20 -14 -30 -49.80 l-25.40 -48 -199.20 -0.60 -199 -0.40 -8.80 19.20 c-4.80 10.60 -10 20.40 -11.40 21.80 -1.40 1.60 -7.60 13.40 -13.80 26.40 -6 12.80 -11.80 24 -12.60 24.60 -1 0.60 -7 12 -13.20 25.60 -6.40 13.40 -12.40 24.40 -13.20 24.40 -1 0 -1.80 1.40 -1.80 3 0 2.40 -3.60 2.60 -23 1.60 -16.80 -0.80 -23 -0.60 -23 1 0 1.40 -1.80 2.40 -4 2.40 -2.60 0 -3.60 -1 -2.80 -3z m476.80 -236 c0 -4.60 -121.80 -237.20 -126.20 -241 -1.80 -1.60 -4 -5.60 -4.60 -9 -0.80 -3.20 -5.40 -13.20 -10 -21.80 l-8.80 -15.80 -7.20 15.80 c-4 8.60 -8.20 16.20 -9.20 16.80 -0.80 0.60 -5.80 10 -11 21 -5 11 -10 20.40 -11 21 -0.80 0.60 -5.80 10 -11 21 -5 11 -10 20.40 -11 21 -0.80 0.60 -5.80 10 -11 21 -5 11 -10 20.40 -10.80 21 -1 0.60 -6 10 -11 21 -5.20 10.80 -10.20 20.40 -11.20 21 -0.80 0.60 -5.80 10 -11 21 -5 11 -10 20.40 -10.80 21 -1 0.60 -5.40 8.80 -9.80 18.60 -4.60 9.60 -9.60 18.80 -11.20 20.60 -1.80 1.60 -3.20 4 -3.20 5 0 1 59 1.80 150 1.80 82.60 0 150 -0.40 150 -1z"/>
  <path d="M8144.40 1079.80 c-1.60 -2.40 -3.80 -3.60 -5.60 -3 -3.20 1.20 -6.40 -3.20 -19.80 -28.60 -5 -9.40 -9.40 -15.20 -11.60 -15.40 -2.20 -0.20 -4 -0.80 -4.20 -1.20 -0.80 -1.20 -42.80 -80.60 -47 -89 l-4.20 -8.60 -199 0 -198.80 0 -9.20 19.40 c-5 10.80 -10 20 -10.80 20.60 -1 0.60 -6.80 11.80 -13 25 -6.20 13 -12.20 24.40 -13.20 25 -0.80 0.60 -6.80 11.80 -13 25 -6.20 13.20 -11.80 24.40 -12.80 25 -0.80 0.60 -2 2.60 -2.80 4.60 -1.20 3 -4.40 3.40 -27.20 3.40 -22.20 0 -26 -0.40 -25 -3 1 -2.40 -3 -3 -25.60 -3.40 l-27 -0.60 10 -18 c12.40 -22.80 12.40 -23 8.60 -23 -1.80 0 -3.20 -1 -3.20 -2.20 0 -1.20 69 -128.60 153.20 -283 l153.40 -280.80 51.60 0 c34.20 0 52 0.80 52.80 2.20 0.80 1 3.40 2.80 6 3.80 2.80 1.20 8.60 9.20 16.20 23 6.80 12.40 13.40 22.20 15.80 23 5.60 2.20 307.80 545.80 308.60 555.20 l0.60 6.80 -48 0 c-26.20 0 -49 0.40 -50.60 1 -1.40 0.60 -3.80 -0.80 -5.20 -3.20z m-155 -262.20 c-7.80 -15.80 -35.80 -69.60 -62.40 -119.60 -26.60 -50 -54 -102 -61 -115.40 l-12.80 -24.40 -6.80 14.40 c-3.60 7.80 -7.40 14.80 -8.40 15.40 -0.80 0.60 -5.80 10 -11 21 -5 11 -10 20.40 -11 21 -0.80 0.60 -5.80 10 -11 21 -5 11 -10 20.40 -11 21 -0.80 0.60 -5.80 10 -11 21 -5 11 -10 20.40 -11 21 -0.80 0.60 -5.80 10 -11 21 -5 11 -10 20.40 -11 21 -0.80 0.60 -5.80 10 -11 21 -5 11 -10 20.40 -11 21 -0.80 0.60 -5.80 9.80 -10.80 20.60 -5 10.80 -10.40 20.80 -12.20 22.60 -1.60 1.60 -3 3.40 -3 4 0 0.40 67.80 0.80 150.80 0.80 l151 0 -14.40 -28.40z"/>
  <path d="M9569.20 1079.40 c-0.80 -3.20 -2.80 -3.60 -13.80 -3.20 -7 0.20 -13.80 -0.20 -15.20 -1.20 -2 -1.20 -2.20 -6.20 -1.20 -21.20 1.20 -17.20 1 -20 -1.80 -21 -3 -1.20 -3.20 -26 -3.20 -283 l0 -281.80 37.60 0 37.40 0 24 21.60 c13.20 12 110.80 99.40 217 194.20 201.40 180.20 219.80 197.20 231.20 212.60 4 5.20 8 9.40 9 9 1 -0.20 6.40 4.60 12 10.60 l10 11 -1 -9 c-2.40 -19 -5.60 -312.40 -4.20 -379.40 l1.40 -70.60 32.80 0 c27.80 0 32.80 0.40 32.80 3 0 2.40 3.20 3 16 3 l16 0 0 22.80 c0 12.60 0.60 23.20 1.60 23.60 0.80 0.20 1.20 126.80 0.80 281.20 l-0.40 280.40 -32.60 0 -32.40 -0.20 -232 -209.80 c-127.60 -115.60 -236.80 -215.20 -242.80 -221.40 -5.80 -6.40 -11.40 -11.40 -12.20 -11.20 -1 0.40 -6.20 -4.80 -11.60 -11.40 l-9.80 -11.80 0.20 35 c0 19.20 0.80 34.80 1.80 34.80 0.80 0 1.40 87.80 1.40 195.20 0 160 -0.40 195.60 -2.60 197.80 -2 1.80 -11.40 2.80 -34 3.40 -28.80 0.60 -31.20 0.40 -32.20 -3z"/>
  <path d="M10765.40 1080.20 c-1 -3.80 -2.60 -4.20 -16.20 -4.20 l-15.20 0 0 -22 c0 -18.20 -0.60 -22 -3 -22 -2.60 0 -3 -27.40 -3 -235 l0 -235 -119 0 c-104.40 0 -119 -0.40 -119 -3 0 -2.40 -3 -3 -15 -3 l-15 0 0 -22 c0 -21 -0.20 -22 -4.20 -22 -3.80 0 -4.20 -0.80 -3 -6.20 0.60 -3.40 1.20 -13.40 1.20 -22 l0 -15.80 313 0 c272.80 0 313 0.40 313 3 0 2.20 3.60 3 15.60 3.40 l15.40 0.60 0.60 22.60 c0.20 12.20 1.20 22.40 2 22.40 0.80 0 1.60 9.40 1.80 21 l0.40 21 -138 0 -137.80 0 0 260 0 260 -32.40 0 c-18 0 -34.60 0.60 -36.80 1.20 -3.20 0.80 -4.60 0 -5.40 -3z"/>
  <path d="M13490 1081 c0 -3.20 -1.40 -3.60 -11.60 -3 -3.60 0.20 -9.20 -0.20 -12.40 -1 l-6 -1.40 0 -21.80 c0 -18 -0.60 -21.80 -3 -21.80 -2.60 0 -3 -32.60 -3 -282 l0 -282 37.60 0 37.40 0 55 49.40 c384.40 344.20 411.60 369 421.40 384 1.80 2.60 4.20 4.60 5.60 4.60 1.40 0 6.80 4.80 12 10.60 l9.20 10.40 -1 -9 c-2.20 -17.80 -5.60 -334.20 -4.20 -391.40 l1.40 -58.60 32.80 0 c27.80 0 32.80 0.40 32.80 3 0 2.40 3.20 3 16 3 l16 0 0 23 c0 19.20 0.60 23 3 23 2.60 0 3 26.80 3 229 0 151.40 -0.60 229 -2 229 -1.20 0 -2 18.60 -2 52 l0 52 -32.80 -0.40 -32.80 -0.60 -237.40 -214.80 c-130.40 -118 -239.20 -217.80 -241.60 -221.40 -2.40 -3.80 -5.40 -6.40 -6.80 -5.80 -1.40 0.40 -6.80 -4.40 -12.20 -11 l-9.80 -11.80 0.20 33 c0 18 0.80 32.80 1.80 32.80 0.80 0 1.40 88.80 1.40 197.20 0 172.80 -0.40 197.40 -3 200 -2.40 2.60 -8.20 3 -31 2.40 -15.40 -0.40 -28 0 -28 1 0 0.80 -1.40 1.40 -3 1.40 -1.60 0 -3 -1.40 -3 -3z"/>
  <path d="M680 1079 c0 -2.40 -3 -3 -15 -3 l-15 0 0 -11.40 c0 -19.80 -2.20 -32.40 -5.20 -31.20 -2.40 0.80 -2.80 -36 -2.80 -235.20 l0 -236.20 -117.80 0 c-102.80 0 -118 -0.40 -119 -3 -0.80 -2.20 -4.60 -3 -16.20 -3 l-15 0 0 -22 c0 -18.20 -0.60 -22 -3 -22 -2.40 0 -3 -3.80 -3 -22 l0 -22 314.20 0 c278.40 0 314 0.40 313 3 -0.80 2.60 1.60 3 14.80 3 l16 0 0 23 c0 19.40 0.40 23 3 23 2.60 0 3 3.20 2.60 20.60 l-0.60 20.40 -138.40 0.60 -138.60 0.40 0 260 0 260 -37 0 c-31.60 0 -37 -0.40 -37 -3z"/>
  <path d="M1359.60 1078 c-9.60 -2 -20.40 -5 -23.80 -6.80 -3.60 -1.80 -7.60 -3.20 -9.20 -3.20 -1.60 0 -3.80 -2.80 -5 -6 -1 -3.40 -3.80 -7 -6 -8.20 -4.80 -2.60 -21 -24.40 -24.80 -33.80 -1.60 -3.80 -5.20 -9.20 -7.60 -12 -9.40 -10 -9.60 -14.60 -10.60 -280.40 -0.60 -137.20 -0.40 -251.80 0.20 -254.60 l1.20 -5 37 0 c31.60 0 37 0.40 37 3 0 2.40 3 3 14.80 3 l14.80 0 1.20 6.20 c0.60 3.40 1.20 13.80 1.20 23 0 13.60 0.60 16.80 3 16.80 1.60 0 3 1.40 3 3 0 1.60 -0.80 3 -2 3 -1.40 0 -2 77 -2 227 0 211.80 0.20 227.20 3.40 231 4.20 4.80 16.20 5.60 17.80 1 1.60 -4 14 -4 15.60 0 1 2.60 24 3 196.60 2.60 l195.60 -0.60 0.60 -259.40 0.40 -259.60 37 0 c31.60 0 37 0.40 37 3 0 2.40 3.20 3 16 3 l16 0 0 23 c0 19.20 0.60 23 3 23 2.60 0 3 22.20 3 188 0 141.20 -0.60 188 -2.40 188 -1.60 0 -2 10 -1 38.60 0.80 28.20 0.40 42.60 -1.60 53.80 -3.40 19.60 -10.40 42.80 -14.20 46.40 -1.60 1.60 -2.80 3.80 -2.80 5 0 1.20 -0.80 2.20 -2 2.20 -1 0 -2 1.20 -2 2.60 0 3.60 -8.60 11.40 -12.60 11.40 -1.80 0 -4 1.20 -4.80 2.60 -0.80 1.40 -6.40 4.60 -12 7.20 -5.80 2.80 -10.60 5.60 -10.60 6.40 0 0.80 -6 3 -13.40 5 -12.60 3.40 -29.80 3.60 -240.60 4.20 -214.40 0.40 -228 0.20 -244.40 -3.40z"/>
  <path d="M4900 1078.60 c0 -2 -4 -2.60 -15 -2.60 l-15 0 0 -11.40 c0 -19 -2.20 -32.60 -5.20 -32.60 -2.40 0 -2.80 -42 -2.80 -259.40 0 -142.80 0.60 -269.80 1.40 -282.20 l1.20 -22.60 205.20 0.80 c220.20 0.80 214.20 0.40 273 11.60 40.60 7.60 74.60 21 104 41.40 11.20 7.60 16.20 13 25.80 27.40 6.60 10 23.80 34.60 38.20 55 34 48 32.20 44.80 38.20 65.40 9 31.40 11.40 49.40 12.20 92.60 1 58 -4.40 95 -20.40 139 -6 16.20 -18.60 42.80 -22.20 46.60 -1.40 1.40 -2.60 4 -2.60 5.60 0 1.60 -0.80 2.80 -2 2.80 -1 0 -2 1.40 -2 3 0 1.60 -0.80 3 -2 3 -1 0 -2 1.40 -2 3 0 1.60 -0.80 3 -2 3 -1 0 -2 1.40 -2 3 0 1.40 -1.20 3.60 -2.60 4.40 -1.60 0.80 -3.20 3.20 -4 5.20 -0.80 1.80 -3.60 4.40 -6.40 5.40 -2.80 1 -5 3.40 -5 5.60 0 4.60 -14 18.40 -18.60 18.40 -2 0 -4.40 2.20 -5.40 5 -1.20 3 -3.40 5 -6 5 -2.20 0 -4 1.40 -4 3 0 1.60 -1.80 3 -4 3 -2.20 0 -4 1 -4 2 0 1.20 -1.40 2 -3 2 -1.60 0 -3 1 -3 2 0 1.20 -1.40 2 -3 2 -1.60 0 -3 1.40 -3 3 0 1.60 -1.80 3 -4 3 -5.20 0 -24.40 9.60 -26.60 13.20 -0.80 1.60 -4 2.80 -7.20 2.80 -6 0 -24.60 5.80 -26.20 8 -3 4.40 -77.80 17 -92.40 15.60 -4.20 -0.40 -7.60 -0.20 -7.60 0.40 0 0.60 -82.80 1 -184 1 -149.60 0.20 -184 -0.20 -184 -2.40z m358 -94.60 c10.40 -1.20 28.40 -4.60 40 -7.40 99.80 -24.20 144.60 -81.80 149.40 -192.60 3.20 -74 -18.80 -136.20 -60.20 -170.40 -18.20 -15 -29 -21 -53.40 -30.40 -26.20 -9.80 -71.80 -19.20 -94.80 -19.20 -5.60 0 -11 -0.60 -12 -1.40 -1.20 -1 -58 -1.40 -126.40 -1 l-124.60 0.60 0 211.80 0 211.80 30.60 0.80 c54.80 1.40 232 -0.60 251.40 -2.60z"/>
  <path d="M6993.20 1079 c-0.80 -2.20 -4.60 -3 -16.20 -3 l-15 0 0 -21 c0 -17.40 -0.60 -21 -3 -21 -2.60 0 -3 -27.60 -3 -236 l0 -236 -119 0 c-104.40 0 -119 -0.40 -119 -3 0 -2.40 -3.20 -3 -16 -3 l-16 0 0 -22 c0 -18.20 -0.60 -22 -3 -22 -2.40 0 -3 -3.80 -3 -22 l0 -22 314 0 c277.80 0 314 0.40 314 3 0 2.40 3 3 15 3 l15 0 0 22 c0 17.80 0.60 22.40 3 23.20 4.20 1.60 4.40 35.80 0.20 40 -2.40 2.40 -23.60 2.80 -138 2.80 l-135.20 0 0 257.20 c0 220.20 -0.40 257.40 -2.80 260 -4.40 4.20 -70.20 4.20 -72 -0.20z"/>
  <path d="M9074 1079 c0 -2.40 -3 -3 -15 -3 l-15 0 0 -11.40 c0 -19 -2.20 -32.60 -5.20 -32.60 -2.40 0 -2.80 -42 -2.80 -259.40 0 -142.80 0.60 -269.80 1.40 -282.20 l1.20 -22.40 36.80 0 c31.20 0 36.60 0.40 36.60 3 0 2.40 3.20 3 16 3 l16 0 0 23 c0 19.20 0.60 23 3 23 2.60 0 3 32.20 3 278.20 0 238.40 -0.40 278.40 -2.80 281 -4.40 4.20 -73.20 4.20 -73.20 -0.20z"/>
  <path d="M11449 1080.60 c-10.80 -1.60 -37.60 -8.80 -43.40 -11.80 -3 -1.60 -5.60 -3.80 -5.60 -4.80 0 -1 -5.40 -7.80 -11.80 -15 -6.60 -7.20 -14.40 -18.40 -17.40 -24.60 -3 -6.20 -7.60 -13.80 -10.20 -16.60 -10 -11 -10.60 -23 -10.60 -231.80 0 -117 0.80 -196.40 2 -205 7.20 -49.80 20.80 -73 51 -87.20 34 -16 37.80 -16.20 312 -15.20 254 0.80 244.80 0.40 280.60 10.40 9.80 2.80 13.40 4.80 15 8.60 1.20 2.80 6.80 9.60 12.40 15.20 5.40 5.80 13.20 16.60 17 24.20 3.80 7.80 8.40 15.20 10.20 16.40 7.60 5.80 8.20 21.80 8.20 234.80 -0.20 184.60 -0.60 206.40 -3.60 219.80 -4.40 19.60 -12 40.40 -15.80 43.20 -1.60 1.20 -3 3.20 -3 4.20 0 3 -7 8.60 -10.80 8.60 -1.80 0 -3.80 1.40 -4.40 3 -0.80 1.60 -2.40 3 -4 3 -1.40 0 -3.60 1.80 -4.80 4 -1.20 2.20 -3.80 4 -6 4 -2 0 -4.40 1 -5 2 -0.60 1.20 -4.40 2 -8.20 2 -3.80 0 -6.80 0.80 -6.80 1.80 0 6 -23.80 6.60 -277 7.20 -139.60 0.20 -256.60 0 -260 -0.40z m498.60 -306 l0.40 -212.60 -243 0 -243 0 0 212 0 212 67.60 0.60 c37 0.20 146.20 0.40 242.40 0.40 l175 0 0.60 -212.40z"/>
  <path d="M12994 1079 c0 -2.40 -3 -3 -15 -3 l-15 0 0 -11.40 c0 -19 -2.20 -32.60 -5.20 -32.60 -2.40 0 -2.80 -42 -2.80 -259.40 0 -142.80 0.60 -269.80 1.40 -282.20 l1.20 -22.40 36.80 0 c31.20 0 36.60 0.40 36.60 3 0 2.40 3.20 3 16 3 l16 0 0 23 c0 19.20 0.60 23 3 23 2.60 0 3 32.20 3 278.20 0 238.40 -0.40 278.40 -2.80 281 -4.40 4.20 -73.20 4.20 -73.20 -0.20z"/>
  <path d="M14584 1079.80 c-17.80 -3 -44 -12 -44 -15 0 -1.60 -5.40 -8.80 -12.20 -16 -6.60 -7.20 -14.60 -18.40 -17.80 -25.20 -3.20 -6.60 -7.60 -14.20 -10 -16.60 -3.20 -3.40 -5.20 -9.60 -7.20 -23.40 -3.60 -24 -3.80 -68.40 -0.20 -71 2.60 -2.20 55.80 -14.60 62 -14.60 1.80 0 3.40 1.20 3.40 2.80 0 2.20 2.20 2.20 14 -0.40 7.80 -1.60 14.80 -2.40 15.60 -1.60 0.80 0.80 1.80 12.40 2 25.60 0.60 19.60 1.20 23.80 3.60 22.80 1.80 -0.60 2.80 0.20 2.80 2.80 0 2.20 -1 4 -2 4 -1.40 0 -2 5.80 -1.60 15.60 l0.60 15.40 217 1.40 c119.40 0.80 218.20 1 219.60 0.60 1.80 -0.60 2.40 -19.40 2.40 -84.80 l0 -84 -209.40 -0.80 c-183.60 -0.60 -211.20 -1 -222.60 -3.80 -21.40 -5.20 -34.60 -10.60 -36.80 -14.60 -1.20 -2.20 -7.20 -9.40 -13.20 -16 -6 -6.80 -13.60 -17.60 -16.80 -24 -3 -6.60 -7.80 -14.20 -10.20 -17 -7.60 -8.20 -9.80 -29.40 -9.80 -98 -0.20 -48.80 0.60 -64.80 3.20 -80 10.20 -56.80 26 -76.40 70.80 -87.80 31.60 -8 47.80 -8.40 241.80 -7.80 163 0.60 188.20 1.20 204 4.20 25.80 4.80 41.20 9.80 43.80 14.40 1.20 2.20 7.20 9.40 13.20 16.20 6 6.80 13.80 17.60 17 24 3.40 6.60 8 14 10.40 16.80 5.80 6.60 8.40 24.40 8.20 56.60 l-0.20 25.40 -7.80 0 c-4.20 0 -7.60 1 -7.60 2 0 1.20 -3.20 2 -7 2 -3.80 0 -7 1 -7 2 0 1.20 -3.20 2 -7 2 -3.80 0 -7 0.80 -7 1.80 0 2.80 -12.60 4.60 -14.20 2 -1 -1.80 -4.80 -1.60 -14.60 1 -7.20 1.80 -14 3.20 -15.20 3.20 -1.20 0 -2 -7.40 -2 -20 0 -16 -0.60 -20.40 -3 -21.20 -2.40 -1 -3 -5.20 -3 -20 l0 -18.80 -208 0 -208 0 0 78 c0 43 0.20 78.20 0.60 78.40 0.20 0.20 96.80 1 214.40 1.60 194.80 1 215 1.40 226 4.60 22 6.40 28.80 9.40 30.20 14 0.60 2.40 6 9.40 11.80 15.60 5.80 6 13.40 16.80 17 24 3.60 7 8 14.20 10 15.80 2.60 2 4.40 8 6 18 2.80 18.80 5 142 2.60 142 -1.20 0 -1.60 4.80 -1 10.80 1.40 16.60 -4.20 44.80 -13 65.80 -1.80 4 -4 7.40 -5 7.40 -0.80 0 -1.60 1.40 -1.60 3 0 1.80 -1.60 3.60 -3.40 4.40 -5.20 1.80 -12.60 8.80 -12.60 12 0 1.40 -1.80 2.60 -4 2.60 -2.20 0 -4 1.20 -4 2.80 0 3 -7.40 6.20 -18.40 8.20 -4.20 0.60 -7.60 2 -7.60 2.80 0 1 -5.20 2.80 -11.40 4.40 -9.40 2.20 -53.40 2.80 -233.60 3 -125.40 0.20 -226.80 -0.40 -233 -1.40z"/>
  <path d="M15547.20 1079 c-0.80 -2.20 -4.60 -3 -16.20 -3 l-15 0 0 -22 c0 -18.20 -0.60 -22 -3 -22 -2.60 0 -3 -32.60 -3 -282 l0 -282 38 0 c32.40 0 38 0.40 38 3 0 2.40 3 3 15 3 l15 0 0 22.20 c0 20.80 0.20 22.20 4.20 23.20 3 0.80 3.80 2.20 3 5.40 -0.60 2.20 -1.20 128.60 -1.20 280.80 l0 276.40 -36.80 0 c-30.80 0 -37 -0.40 -38 -3z"/>
  <path d="M16092.80 1079.80 c-14.20 -2.40 -42.80 -11.60 -42.80 -13.80 0 -1 -5.40 -8 -12 -15.40 -6.80 -7.40 -15 -19.40 -18.40 -26.60 -3.60 -7.20 -8.40 -14.80 -10.80 -17 -8.40 -7.60 -8.80 -18.80 -8.80 -233.20 0 -190.40 0.20 -204 3.80 -221 5 -24.40 12.40 -39.40 26.20 -52.80 18.20 -17.80 39 -26 77.20 -30 13.20 -1.40 94 -2 241.80 -1.60 197.20 0.60 224 1.20 240 4.20 26 4.80 41.20 9.80 43.80 14.40 1.20 2.20 6 8.20 10.60 13.40 9 9.80 22.60 30 22.60 33.40 0 1.20 2.60 5 5.80 8.80 5 5.60 6.40 9.40 8.40 24.40 1.20 9.80 1.80 23 1.20 29.40 -0.60 6.40 -0.20 11.60 0.80 11.60 3.40 0 2 15.80 -1.80 19.60 -2.40 2.40 -13.80 5.80 -33.60 9.80 -16.40 3.40 -31.80 6.80 -34.20 7.60 -3.60 1.20 -4.60 0.60 -4.60 -2 0 -3.60 -5 -3.60 -23.20 0.20 l-6.20 1.20 -1.20 -12.60 c-0.80 -6.80 -1.40 -16.80 -1.40 -22 0 -7.40 -0.80 -9.80 -3 -9.80 -2.40 0 -3 -3.40 -3 -19 l0 -19 -230 0 -230 0 0 212 0 212 230 0 230 0 -0.40 -82.40 -0.60 -82.60 -99.40 -0.60 c-66 -0.20 -99.60 0.20 -99.60 1.60 0 1 -1.40 2 -3 2 -1.60 0 -3 -1.40 -3 -3 0 -2.20 -3.40 -3 -14.40 -3.40 l-14.60 -0.60 -0.60 -22.40 c-0.40 -18.20 -1 -22.60 -3.40 -22.60 -2.40 0 -3 -3.60 -3 -19 l0 -19 159.60 0.40 c126.20 0.40 159.20 1.20 158.80 3.20 -0.20 1.80 3.80 2.40 15.60 2.40 l16 0 0 22 c0 18.20 0.60 22 3 22 2.60 0 3 7.60 3 56 0 40.20 -0.60 56 -2.20 56 -1.60 0 -2 9.60 -0.80 35.60 1.60 40 -0.40 60.40 -8.20 84.20 -2.60 8.20 -5.60 15.60 -6.40 16.20 -0.80 0.60 -2.60 3.40 -3.80 6.60 -1.40 3 -3.80 5.40 -5.40 5.40 -1.60 0 -5.60 3.20 -9 7 -3.40 3.80 -6.80 7 -7.60 7 -1 0 -3.40 2.20 -5.40 5 -2 2.80 -5.60 5 -7.80 5 -5 0 -26 6.40 -27.40 8.20 -3.60 5 -43.60 5.80 -264.60 5.60 -127.80 -0.20 -237 -1 -242.60 -2z"/>
  <path d="M17081.20 1079 c-0.80 -2.20 -4.60 -3 -16.20 -3 l-15 0 0 -21 c0 -17.40 -0.60 -21 -3 -21 -2.60 0 -3 -32.80 -3 -283 l0 -283 38 0 c32.40 0 38 0.40 38 3 0 2.40 3 3 15 3 l15 0 0 22.20 c0 19.40 0.40 22.20 3.60 23 3.20 1 3.40 7.40 3.40 98.40 l0 97.40 231 0 231 0 0.60 -123.40 0.40 -123.60 37 0 c31.60 0 37 0.40 37 3 0 2.40 3.20 3 16 3 l16 0 0 23 c0 19.20 0.60 23 3 23 2.60 0 3 32.20 3 278.20 0 238.40 -0.40 278.40 -2.80 281 -4.40 4.20 -70.20 4.20 -72 -0.20 -0.80 -2.20 -4.60 -3 -16.20 -3 l-15 0 0 -21 c0 -17.40 -0.60 -21 -3 -21 -2.60 0 -3 -13.80 -3 -112 l0 -112 -232.40 0 -232.60 0 0.60 136 0.60 136 -36.80 0 c-31 0 -37.20 -0.40 -38.20 -3z"/>
  <path d="M18287.20 1079 c-0.80 -2.20 -4.60 -3 -16.20 -3 l-15 0 0 -21 c0 -17.40 -0.60 -21 -3 -21 -2.60 0 -3 -27.60 -3 -236 l0 -236 -119 0 c-104.40 0 -119 -0.40 -119 -3 0 -2.40 -3.20 -3 -16 -3 l-16 0 0 -22 c0 -18.20 -0.60 -22 -3 -22 -2.40 0 -3 -3.80 -3 -22 l0 -22 314 0 c277.80 0 314 0.40 314 3 0 2.40 3 3 15 3 l15 0 0 22 c0 17.80 0.60 22.40 3 23.20 4.20 1.60 4.40 35.80 0.20 40 -2.40 2.40 -23.60 2.80 -138 2.80 l-135.20 0 0 257.20 c0 220.20 -0.40 257.40 -2.80 260 -4.40 4.20 -70.20 4.20 -72 -0.20z"/>
  <path d="M18948 1079.60 c-6 -0.80 -18.40 -4 -27.40 -6.60 -12.80 -4 -16.60 -6 -17.80 -9.60 -0.60 -2.40 -6 -9.40 -11.80 -15.60 -5.80 -6 -13.40 -16.80 -17 -24 -3.60 -7 -8.60 -15.20 -11 -18.20 -5.80 -6.80 -9 -31.20 -9 -67.20 0 -23.20 0.40 -26.20 3.60 -27.20 10.40 -3 56.60 -13.20 60.20 -13.20 2.20 0 4.20 1.20 4.20 2.60 0 2.20 2.60 2.20 14 -0.20 7.60 -1.80 14.60 -2.40 15.40 -1.60 1 0.80 2 12.40 2.40 25.40 0.40 19.60 1.20 23.80 3.40 23 1.80 -0.60 2.80 0.40 2.80 2.80 0 2.20 -1 4 -2 4 -1.40 0 -2 5.80 -1.60 15.60 l0.60 15.40 219.60 0.60 219.40 0.40 0 -83.80 0 -84 -209.40 -0.80 c-159.60 -0.60 -212 -1.40 -219.60 -3.20 -29.20 -7.40 -37 -10.40 -40.40 -15.80 -2 -3 -8 -10.40 -13.60 -16.40 -5.40 -6.20 -13 -17 -16.80 -24 -3.80 -7.20 -8.40 -14.80 -10.40 -17 -6 -6.80 -8.60 -37.80 -8.80 -103 0 -49 0.60 -62 3.60 -77 9.20 -46.40 21.20 -64.40 52.80 -79.40 26.60 -12.60 24.80 -12.60 246.60 -12.60 181.60 0 202.80 0.40 219 3.40 27.60 5.40 39.40 10 42.80 16.60 1.60 3.20 5.40 7.80 8.40 10.40 5.80 5 22.60 29 25 35.80 0.80 2 3.40 6 6 8.80 6.40 7 9.40 28.80 7.60 56.80 -1 19 -1.80 21.80 -5 22.60 -2.20 0.60 -3.80 1.80 -3.80 2.80 0 1 -3.20 1.80 -7 1.80 -3.80 0 -7 1 -7 2 0 1.20 -3.20 2 -7 2 -3.80 0 -7 1 -7 2 0 1.20 -3 2 -6.80 2 -4.20 0 -7.20 1.20 -8 3 -0.60 1.60 -2.40 3 -4.20 3 -1.60 0 -3 -1.40 -3 -3 0 -3.80 -2.40 -3.80 -17.20 0.80 l-12.20 3.60 -1.40 -12 c-0.60 -6.60 -1.20 -16.40 -1.20 -21.60 0 -7.40 -0.80 -9.80 -3 -9.80 -2.40 0 -3 -3.40 -3 -19 l0 -19 -207 0 -207 0 0 77.60 0 77.80 21.40 1.20 c11.60 0.80 105.80 1.40 209 1.40 163 0 189.80 0.40 203 3.20 22.60 4.60 36.20 10.20 37.80 15.40 0.60 2.40 6 9.40 11.80 15.60 5.80 6 13.40 16.80 17 24 3.60 7 8.20 14.60 10.20 17 6.40 6.80 8 22.40 9.20 88.40 0.80 47 0.60 62.40 -1.20 62.40 -1.80 0 -2 4.40 -1 16.60 0.60 9.80 0.20 21.40 -1 29 -3.80 20 -13 46.40 -16.20 46.40 -0.80 0 -2 1.80 -2.60 4.20 -0.60 2.20 -3 4.60 -5.40 5.20 -2.40 0.60 -5.20 3.20 -6.20 5.80 -1 2.80 -3.40 4.80 -5.60 4.80 -2.20 0 -4.20 0.80 -4.60 1.60 -0.80 1.80 -22.40 11.60 -30 13.40 -3.20 0.80 -5.60 2.20 -5.60 3 0 0.80 -3.80 2.20 -8.40 3 -12.20 2.20 -448.40 2.80 -461.60 0.60z"/>
 </g>
 <g fill="#00ffff">
  <path d="M680.80 1120.20 c-0.40 -0.40 -0.80 -10.60 -0.80 -22.60 l0 -21.60 34 0 34 0 -0.40 -260 -0.60 -260 139 -0.40 139 -0.60 0.60 -17.60 0.60 -17.40 15.40 0 15.40 0 -0.40 40 -0.40 40 -137.60 0.60 -137.60 0.40 -0.60 259.40 -0.40 259.40 -49.20 0.60 c-27 0.40 -49.60 0.20 -50 -0.20z"/>
  <path d="M2940.80 1120 l-74 -1 -121.80 -116.40 -121.60 -116.60 -88.60 0 -88.80 0 0 117 0 117 -49.80 0 -50 0 -0.60 -22 -0.60 -22 34.60 0 34.80 0 -1.40 -117.40 -1.60 -117.60 91.40 0.60 91.60 0.60 122 117.20 122.20 117 64.60 -1.40 c45 -1 64.80 -0.80 64.80 0.60 0 1.20 10.80 11.40 24 22.60 13.20 11.40 24 21.20 24 22.20 0 0.80 -0.20 1.40 -0.40 1.20 -0.40 -0.40 -34 -1 -74.80 -1.60z"/>
  <path d="M3320 1098.60 l0 -22.60 30 0 30 0 0 -101 c0 -73.80 -0.60 -101 -2.20 -101 -1.80 0 -2 -30.20 -1.40 -115 0.40 -65.40 0.20 -115 -0.80 -115 -1 0 -1.20 -6.40 -0.40 -14.20 1 -9.80 0.60 -14.60 -0.80 -15.60 -1.60 -0.80 -1.80 -5 -1 -11.80 l1.20 -10.20 14.20 18 c11.60 14.80 60.20 59.80 261 241.40 l246.80 223.40 25.80 0.60 c20.40 0.40 26.40 0 28.60 -2.40 2.60 -2.60 3 -39.60 3 -278 l0 -275.20 15 0 15 0 0.40 300.20 c0.40 165 0.40 300.20 0.20 300.40 -0.20 0.20 -13.20 0.20 -29 -0.20 l-28.80 -0.60 -58.80 -53.20 c-222.80 -201.40 -425 -385.40 -435.60 -396.60 -6.80 -7.20 -15.40 -17.20 -19 -22.40 -3.60 -5.20 -6.80 -9.60 -7.40 -9.60 -0.60 0 -0.40 6 0.40 13.60 2.60 22.80 5.60 298.80 4.20 385.80 l-1.20 82.40 -44.60 0.60 -44.80 0.60 0 -22.40z"/>
  <path d="M5858.80 1120 l-48.20 -1 10.60 -19 c5.80 -10.40 10.60 -20.60 10.60 -22.60 0.20 -3.40 2.20 -3.60 23.20 -3 17.80 0.40 22.80 0 22 -1.80 -0.40 -1.40 0.20 -2.60 1.60 -2.60 3 0 18 -29.40 16.40 -32.20 -0.80 -1 -0.20 -1.80 1 -1.80 1.20 0 1.60 -0.80 1 -2 -0.60 -1 -0.20 -2 1 -2 1.20 0 1.60 -0.80 1 -2 -0.60 -1 -0.20 -2 1 -2 1.20 0 1.60 -0.80 1 -2 -0.60 -1 -0.20 -2 1 -2 1.20 0 1.60 -0.80 1 -2 -0.60 -1 0 -2 1.40 -2 3.20 0 16.20 -25.40 14.60 -28.20 -0.80 -1 -0.20 -1.80 1 -1.80 1.20 0 1.60 -0.80 1 -2 -0.60 -1 -0.20 -2 1 -2 1.20 0 1.60 -0.80 1 -2 -0.60 -1 -0.20 -2 1 -2 1.20 0 1.60 -0.80 1 -2 -0.60 -1 -0.20 -2 1 -2 1.20 0 1.60 -0.80 1 -2 -0.60 -1 -0.20 -2 1 -2 1.20 0 1.60 -0.80 1 -2 -0.60 -1 0 -2 1.40 -2 3.20 0 16.20 -25.40 14.60 -28.20 -0.80 -1 -0.20 -1.80 1 -1.80 1.20 0 1.60 -0.80 1 -2 -0.60 -1 -0.20 -2 1 -2 1.20 0 1.60 -0.80 1 -2 -0.60 -1 -0.20 -2 0.80 -2 1.20 0 2 -1 1.80 -2 -0.60 -2.20 407.20 -3 410.80 -0.80 1 0.80 7.20 12 13.60 25.20 9.40 19 11 24 8.80 25 -1.80 0.60 -4.40 -0.60 -6 -3.20 l-3 -4.20 -193.40 0 c-106.40 0 -194.40 0.80 -195.60 1.60 -1.20 0.80 -18.60 33.20 -38.80 71.80 -20 38.80 -37.60 71.60 -38.80 73 -1.60 2 -13 2.40 -50.40 1.60z"/>
  <path d="M6470.20 1119 c-2.40 -3 -22.20 -40.60 -22.20 -41.80 0 -0.60 21.60 -1.20 47.80 -1.20 40.60 0 48 -0.40 49 -3 1.40 -3.60 -0.60 -9 -3.20 -9 -1 0 -1.20 -0.80 -0.60 -2 0.60 -1 0.20 -2 -1 -2 -1.20 0 -1.60 -0.80 -1 -2 0.60 -1 0.40 -2 -0.60 -2 -1.20 0 -2.60 -2.20 -3.20 -5 -0.80 -2.80 -2.20 -5 -3.40 -5 -1.20 0 -1.40 -0.80 -0.80 -2 0.60 -1 0.20 -2 -1 -2 -1.20 0 -1.60 -0.80 -1 -2 0.60 -1 0.40 -2 -0.60 -2 -1.20 0 -2.60 -2.20 -3.20 -5 -0.80 -2.80 -2.20 -5 -3.40 -5 -1.20 0 -1.40 -0.80 -0.80 -2 0.60 -1 0.20 -2 -1 -2 -1.20 0 -1.60 -0.80 -1 -2 0.60 -1 0.40 -2 -0.60 -2 -1.20 0 -2.60 -2.20 -3.20 -5 -0.80 -2.80 -2.20 -5 -3.40 -5 -1.20 0 -1.40 -0.80 -0.80 -2 0.60 -1 0.20 -2 -1 -2 -1.20 0 -1.60 -0.80 -1 -2 0.60 -1 0.40 -2 -0.60 -2 -1.20 0 -2.60 -2.20 -3.20 -5 -0.80 -2.80 -2.20 -5 -3.40 -5 -1.20 0 -1.40 -0.80 -0.80 -2 0.60 -1 0.20 -2 -1 -2 -1.20 0 -1.60 -0.80 -1 -2 0.60 -1 0.40 -2 -0.60 -2 -1.20 0 -2.60 -2.20 -3.20 -5 -0.80 -2.80 -2.20 -5 -3.40 -5 -1.20 0 -1.40 -0.80 -0.80 -2 0.60 -1 0.20 -2 -1 -2 -1.20 0 -1.60 -0.80 -1 -2 0.60 -1 0.40 -2 -0.60 -2 -1.20 0 -2.60 -2.20 -3.20 -5 -0.80 -2.80 -2.20 -5 -3.40 -5 -1.20 0 -1.40 -0.80 -0.80 -2 0.60 -1 0.20 -2 -1 -2 -1.20 0 -1.60 -0.80 -1 -2 0.60 -1 0.40 -2 -0.60 -2 -1.20 0 -2.60 -2.20 -3.20 -5 -0.80 -2.80 -2.20 -5 -3.40 -5 -1.20 0 -1.40 -0.80 -0.80 -2 0.60 -1 0.20 -2 -1 -2 -1.20 0 -1.60 -0.80 -1 -2 0.60 -1 0.40 -2 -0.60 -2 -1.20 0 -2.60 -2.20 -3.20 -5 -0.80 -2.80 -2.20 -5 -3.40 -5 -1.20 0 -1.40 -0.80 -0.80 -2 0.60 -1 0.20 -2 -1 -2 -1.20 0 -1.60 -0.80 -1 -2 0.60 -1 0.40 -2 -0.60 -2 -1.20 0 -2.60 -2.20 -3.20 -5 -0.80 -2.80 -2.20 -5 -3.40 -5 -1.20 0 -1.40 -0.80 -0.80 -2 0.60 -1 0.20 -2 -1 -2 -1.20 0 -1.60 -0.80 -1 -2 0.60 -1 0.40 -2 -0.60 -2 -1.20 0 -2.60 -2.20 -3.20 -5 -0.80 -2.80 -2.20 -5 -3.40 -5 -1.20 0 -1.40 -0.80 -0.80 -2 0.60 -1 0.20 -2 -1 -2 -1.20 0 -1.60 -0.80 -1 -2 0.60 -1 0.40 -2 -0.60 -2 -1.20 0 -2.60 -2.20 -3.20 -5 -0.80 -2.80 -2.20 -5 -3.40 -5 -1.20 0 -1.40 -0.80 -0.80 -2 0.60 -1 0.20 -2 -1 -2 -1.20 0 -1.60 -0.80 -1 -2 0.60 -1 0.40 -2 -0.60 -2 -1.20 0 -2.60 -2.20 -3.20 -5 -0.80 -2.80 -2.20 -5 -3.40 -5 -1.20 0 -1.40 -0.80 -0.80 -2 0.60 -1 0.20 -2 -1 -2 -1.20 0 -1.60 -0.80 -1 -2 0.60 -1 0.40 -2 -0.60 -2 -1.20 0 -2.60 -2.20 -3.20 -5 -0.80 -2.80 -2.20 -5 -3.40 -5 -1.20 0 -1.40 -0.80 -0.80 -2 0.60 -1 0.20 -2 -1 -2 -1.20 0 -1.60 -0.80 -1 -2 0.60 -1 0.40 -2 -0.60 -2 -1.20 0 -2.60 -2.20 -3.20 -5 -0.80 -2.80 -2.20 -5 -3.40 -5 -1.20 0 -1.40 -0.80 -0.80 -2 0.60 -1 0.20 -2 -1 -2 -1.20 0 -1.60 -1 -1 -2 0.60 -1.20 0.40 -2 -0.60 -2 -1.20 0 -2.60 -2.20 -3.20 -5 -0.80 -2.80 -2.20 -5 -3.40 -5 -1.20 0 -1.40 -0.80 -0.80 -2 0.60 -1 0.20 -2 -1 -2 -1.20 0 -1.60 -0.80 -1 -2 0.60 -1 0.40 -2 -0.60 -2 -1.20 0 -2.60 -2.20 -3.20 -5 -0.80 -2.80 -2.20 -5 -3.40 -5 -1.20 0 -1.40 -0.80 -0.80 -2 0.60 -1 0.20 -2 -1 -2 -1.20 0 -1.60 -0.80 -1 -2 0.60 -1 0.40 -2 -0.60 -2 -1.20 0 -2.60 -2.20 -3.20 -5 -0.80 -2.80 -2.20 -5 -3.40 -5 -1.20 0 -1.40 -0.80 -0.80 -2 0.60 -1 0.20 -2 -1 -2 -1.20 0 -1.60 -1 -1 -2 0.60 -1 0.40 -2 -0.60 -2 -1.20 0 -2.60 -2.20 -3.20 -5 -0.80 -2.80 -2.20 -5 -3.40 -5 -1.20 0 -1.40 -0.80 -0.80 -2 0.60 -1 0.20 -2 -1 -2 -1.20 0 -1.60 -0.80 -1 -2 0.60 -1 0.40 -2 -0.60 -2 -1.20 0 -2.60 -2.20 -3.20 -5 -0.80 -2.80 -2.20 -5 -3.40 -5 -1.20 0 -1.40 -0.80 -0.80 -2 0.60 -1 0.20 -2 -1 -2 -1.20 0 -1.60 -1 -1 -2 0.60 -1.20 0.40 -2 -0.60 -2 -1.20 0 -2.60 -2.20 -3.20 -5 -0.80 -2.80 -2.20 -5 -3.40 -5 -1.20 0 -1.40 -0.80 -0.80 -2 0.60 -1 0.20 -2 -1 -2 -1.20 0 -1.60 -0.80 -1 -2 0.60 -1 0.40 -2 -0.60 -2 -1.20 0 -2.60 -2.20 -3.20 -5 -0.80 -2.80 -2.20 -5 -3.40 -5 -1.20 0 -1.40 -1 -0.80 -2 0.60 -1.20 0.20 -2 -1 -2 -1.20 0 -1.60 -0.80 -1 -2 0.60 -1 0.40 -2 -0.60 -2 -1.20 0 -2.60 -2.20 -3.20 -5 -0.80 -2.80 -2.20 -5 -3.40 -5 -1.20 0 -1.40 -0.80 -0.80 -2 0.60 -1 0.20 -2 -1 -2 -1.20 0 -1.60 -1 -1 -2 0.60 -1.20 0.40 -2 -0.60 -2 -1.20 0 -2.60 -2.20 -3.20 -5 -0.80 -2.80 -2.20 -5 -3.40 -5 -1.20 0 -1.40 -0.80 -0.80 -2 0.60 -1 0.20 -2 -1 -2 -1.20 0 -1.60 -0.80 -1 -2 0.60 -1 0.40 -2 -0.60 -2 -1.20 0 -2.60 -2.20 -3.20 -5 -0.80 -2.80 -2.20 -5 -3.40 -5 -1.20 0 -1.40 -0.80 -0.80 -2 0.60 -1 0.20 -2 -1 -2 -1.20 0 -1.60 -0.80 -1 -2 0.60 -1 0.40 -2 -0.60 -2 -1.20 0 -2.60 -2.20 -3.20 -5 -0.80 -2.80 -2.20 -5 -3.40 -5 -1.20 0 -1.40 -1 -0.80 -2 0.60 -1 0.20 -2 -1 -2 -1.20 0 -1.60 -1 -1 -2 0.60 -1.20 0.40 -2 -0.60 -2 -1.20 0 -2.60 -2.20 -3.20 -5 -0.80 -2.80 -2.20 -5 -3.40 -5 -1.20 0 -1.40 -1 -0.80 -2 0.60 -1.20 0.20 -2 -1 -2 -1.20 0 -1.60 -1 -1 -2 0.60 -1.20 0.40 -2 -0.60 -2 -1.20 0 -2.60 -2.20 -3.20 -5 -0.80 -2.80 -2.20 -5 -3.40 -5 -1.20 0 -1.40 -0.80 -0.80 -2 0.60 -1 0.20 -2 -1 -2 -1.20 0 -1.60 -0.80 -1 -2 0.60 -1 0.40 -2 -0.60 -2 -1.20 0 -2.60 -2.20 -3.20 -5 -0.80 -2.80 -2.20 -5 -3.40 -5 -1.20 0 -1.40 -0.80 -0.80 -2 0.60 -1 0.20 -2 -1 -2 -1.20 0 -1.60 -0.80 -1 -2 0.60 -1 0.40 -2 -0.60 -2 -1.20 0 -2.60 -2.20 -3.20 -5 -0.80 -2.80 -2.20 -5 -3.40 -5 -1.20 0 -1.40 -0.80 -0.80 -2 0.60 -1 0.20 -2 -1 -2 -1.20 0 -1.60 -1 -1 -2 0.60 -1.20 0.20 -2 -0.80 -2 -1.20 0 -2.20 -1.20 -2.20 -2.80 0 -1.60 -1.40 -4.20 -3 -5.80 -2.40 -2.60 -2.40 -3.40 -0.20 -5.20 2.40 -2 4.80 1 12.80 15.20 22.80 40.80 323.40 581.40 324 583 1 2.40 -107.60 3 -109.40 0.60z"/>
  <path d="M6993.60 1098.40 l-0.60 -22.40 31.60 0 c24.80 0 32.40 -0.60 34.60 -2.80 2.40 -2.60 2.80 -39.80 2.80 -260 l0 -257.20 135.20 0 c138.80 0 139.40 0 140 -7.40 0.20 -1.40 0.40 -8.60 0.40 -16 l0.40 -13.60 16 0.60 16 0.80 -0.40 39.80 -0.60 40 -135.80 -0.20 c-98.40 0 -136.40 0.60 -138.40 2.20 -2.40 2 -2.80 44.40 -2.80 260.60 l0 258.20 -48.80 0 -49 0 -0.60 -22.60z"/>
  <path d="M7553.40 1120.40 c-26.20 -0.20 -47.40 -1.20 -47 -2.20 0.40 -1 5.40 -10.80 11.40 -21.80 l11 -20.20 22 -0.60 c19.80 -0.60 22.20 -1 22 -4 -0.20 -2 0.80 -3.60 2 -3.60 2.80 0 15.80 -25.60 14.20 -28.20 -0.80 -1 -0.20 -1.80 1 -1.80 1.20 0 1.60 -0.80 1 -2 -0.60 -1 -0.20 -2 1 -2 1.20 0 1.60 -0.80 1 -2 -0.60 -1 -0.20 -2 1 -2 1.20 0 1.60 -0.80 1 -2 -0.60 -1 -0.20 -2 1 -2 1.20 0 1.60 -0.80 1 -2 -0.60 -1 -0.20 -2 1 -2 1.20 0 1.60 -0.80 1 -2 -0.60 -1 0 -2 1.40 -2 3.20 0 18.20 -29.40 16.60 -32.20 -0.80 -1 -0.20 -1.80 1 -1.80 1.20 0 1.60 -0.80 1 -2 -0.60 -1 -0.20 -2 1 -2 1.20 0 1.60 -0.80 1 -2 -0.60 -1 -0.20 -2 1 -2 1.20 0 1.60 -0.80 1 -2 -0.60 -1 -0.20 -2 1 -2 1.20 0 1.60 -0.80 1 -2 -0.60 -1 0 -2 1.40 -2 3.20 0 18.20 -29.40 16.60 -32.20 -0.80 -1 -0.20 -1.80 1.20 -1.80 1.40 0 2 -0.60 1.20 -1.20 -5.40 -5.40 7.80 -5.80 207.40 -5.40 l204.20 0.20 12.40 24.60 c9 17.60 12 25.20 10.40 26.80 -1.60 1.40 -3 0.60 -5.20 -2.40 l-3 -4.60 -194.60 0 c-153.20 0 -195 0.60 -196.40 2.60 -1.20 1.20 -18 33.40 -37.80 71.20 -19.60 37.80 -37 70.20 -38.60 72 -2.80 2.80 -9.20 3.20 -50.80 2.60z"/>
  <path d="M8219 1120.40 l-54.20 -0.40 -10.40 -21 c-5.80 -11.60 -10.40 -21.40 -10.40 -22 0 -0.60 22 -1 49 -1 29.80 0 49 -0.80 49 -2 0 -3.40 -4.60 -12 -6.40 -12 -1 0 -1.20 -0.80 -0.60 -2 0.60 -1 0.20 -2 -1 -2 -1.20 0 -1.60 -0.80 -1 -2 0.60 -1 0.40 -2 -0.60 -2 -1.20 0 -2.60 -2.20 -3.20 -5 -0.80 -2.80 -2.20 -5 -3.40 -5 -1.20 0 -1.40 -0.80 -0.80 -2 0.60 -1 0.20 -2 -1 -2 -1.20 0 -1.60 -0.80 -1 -2 0.60 -1 0.40 -2 -0.60 -2 -1.20 0 -2.60 -2.20 -3.20 -5 -0.80 -2.80 -2.20 -5 -3.40 -5 -1.20 0 -1.40 -0.80 -0.80 -2 0.60 -1 0.20 -2 -1 -2 -1.20 0 -1.60 -0.80 -1 -2 0.60 -1 0.40 -2 -0.60 -2 -1.20 0 -2.60 -2.20 -3.20 -5 -0.80 -2.80 -2.20 -5 -3.40 -5 -1.20 0 -1.40 -0.80 -0.80 -2 0.60 -1 0.20 -2 -1 -2 -1.20 0 -1.60 -0.80 -1 -2 0.60 -1 0.40 -2 -0.60 -2 -1.20 0 -2.60 -2.20 -3.20 -5 -0.80 -2.80 -2.20 -5 -3.40 -5 -1.20 0 -1.40 -0.80 -0.80 -2 0.60 -1 0.20 -2 -1 -2 -1.20 0 -1.60 -0.80 -1 -2 0.60 -1 0.40 -2 -0.60 -2 -1.20 0 -2.60 -2.20 -3.20 -5 -0.80 -2.80 -2.20 -5 -3.40 -5 -1.20 0 -1.40 -0.80 -0.80 -2 0.60 -1 0.20 -2 -1 -2 -1.20 0 -1.60 -0.80 -1 -2 0.60 -1 0.40 -2 -0.60 -2 -1.20 0 -2.60 -2.20 -3.20 -5 -0.80 -2.80 -2.20 -5 -3.40 -5 -1.20 0 -1.40 -0.80 -0.80 -2 0.60 -1 0.20 -2 -1 -2 -1.20 0 -1.60 -0.80 -1 -2 0.60 -1 0.40 -2 -0.60 -2 -1.20 0 -2.60 -2.20 -3.20 -5 -0.80 -2.80 -2.20 -5 -3.40 -5 -1.20 0 -1.40 -0.80 -0.80 -2 0.60 -1 0.20 -2 -1 -2 -1.20 0 -1.60 -0.80 -1 -2 0.60 -1 0.40 -2 -0.60 -2 -1.20 0 -2.60 -2.20 -3.20 -5 -0.80 -2.80 -2.20 -5 -3.40 -5 -1.20 0 -1.40 -0.80 -0.80 -2 0.60 -1 0.20 -2 -1 -2 -1.20 0 -1.60 -0.80 -1 -2 0.60 -1 0.40 -2 -0.60 -2 -1.20 0 -2.60 -2.20 -3.20 -5 -0.80 -2.80 -2.20 -5 -3.40 -5 -1.20 0 -1.40 -0.80 -0.80 -2 0.60 -1 0.20 -2 -1 -2 -1.20 0 -1.60 -0.80 -1 -2 0.60 -1 0.40 -2 -0.60 -2 -1.20 0 -2.60 -2.20 -3.20 -5 -0.80 -2.80 -2.20 -5 -3.40 -5 -1.20 0 -1.40 -0.80 -0.80 -2 0.60 -1 0.20 -2 -1 -2 -1.20 0 -1.60 -1 -1 -2 0.60 -1 0.40 -2 -0.60 -2 -1.20 0 -2.60 -2.20 -3.20 -5 -0.80 -2.80 -2.20 -5 -3.40 -5 -1.20 0 -1.40 -0.80 -0.80 -2 0.60 -1 0.20 -2 -1 -2 -1.20 0 -1.60 -0.80 -1 -2 0.60 -1 0.40 -2 -0.60 -2 -1.20 0 -2.60 -2.20 -3.20 -5 -0.80 -2.80 -2.20 -5 -3.40 -5 -1.20 0 -1.40 -0.80 -0.80 -2 0.60 -1 0.20 -2 -1 -2 -1.20 0 -1.60 -0.80 -1 -2 0.60 -1 0.40 -2 -0.60 -2 -1.20 0 -2.60 -2.20 -3.20 -5 -0.80 -2.80 -2.20 -5 -3.40 -5 -1.20 0 -1.40 -0.80 -0.80 -2 0.60 -1 0.20 -2 -1 -2 -1.20 0 -1.60 -1 -1 -2 0.60 -1.20 0.40 -2 -0.60 -2 -1.20 0 -2.60 -2.20 -3.20 -5 -0.80 -2.80 -2.20 -5 -3.40 -5 -1.20 0 -1.40 -1 -0.80 -2 0.60 -1.20 0.20 -2 -1 -2 -1.20 0 -1.60 -0.80 -1 -2 0.60 -1 0.40 -2 -0.60 -2 -1.20 0 -2.60 -2.20 -3.20 -5 -0.80 -2.80 -2.20 -5 -3.40 -5 -1.20 0 -1.40 -0.80 -0.80 -2 0.60 -1 0.20 -2 -1 -2 -1.20 0 -1.60 -0.80 -1 -2 0.60 -1 0.40 -2 -0.60 -2 -1.20 0 -2.60 -2.20 -3.20 -5 -0.80 -2.80 -2.20 -5 -3.40 -5 -1.20 0 -1.40 -0.80 -0.80 -2 0.60 -1 0.20 -2 -1 -2 -1.20 0 -1.60 -0.80 -1 -2 0.60 -1 0.40 -2 -0.60 -2 -1.20 0 -2.60 -2.20 -3.20 -5 -0.80 -2.80 -2.20 -5 -3.40 -5 -1.20 0 -1.40 -1 -0.80 -2 0.60 -1.20 0.20 -2 -1 -2 -1.20 0 -1.60 -0.80 -1 -2 0.60 -1 0.40 -2 -0.60 -2 -1.20 0 -2.60 -2.20 -3.20 -5 -0.80 -2.80 -2.20 -5 -3.40 -5 -1.20 0 -1.40 -1 -0.80 -2 0.60 -1 0.20 -2 -1 -2 -1.20 0 -1.60 -1 -1 -2 0.60 -1.20 0.40 -2 -0.60 -2 -1.20 0 -2.60 -2.20 -3.20 -5 -0.80 -2.80 -2.20 -5 -3.40 -5 -1.20 0 -1.40 -0.80 -0.80 -2 0.60 -1 0.20 -2 -1 -2 -1.20 0 -1.60 -1 -1 -2 0.60 -1 0.40 -2 -0.60 -2 -1.20 0 -2.60 -2.20 -3.20 -5 -0.80 -2.80 -2.20 -5 -3.40 -5 -1.20 0 -1.40 -1 -0.80 -2 0.60 -1 0.20 -2 -1 -2 -1.20 0 -1.60 -0.80 -1 -2 0.60 -1 0.40 -2 -0.60 -2 -1.20 0 -2.60 -2.20 -3.20 -5 -0.80 -2.80 -2.20 -5 -3.40 -5 -1.20 0 -1.40 -0.80 -0.80 -2 0.60 -1 0.20 -2 -1 -2 -1.20 0 -1.60 -0.80 -1 -2 0.60 -1 0.40 -2 -0.60 -2 -1.20 0 -2.60 -2.20 -3.20 -5 -0.80 -2.80 -2.20 -5 -3.40 -5 -1.20 0 -1.40 -0.80 -0.80 -2 0.60 -1 0.20 -2 -1 -2 -1.20 0 -1.60 -0.80 -1 -2 0.60 -1 0.40 -2 -0.60 -2 -1.20 0 -2.60 -2.20 -3.20 -5 -0.80 -2.80 -2.20 -5 -3.40 -5 -1.20 0 -1.40 -0.80 -0.80 -2 0.60 -1 0.20 -2 -1 -2 -1.20 0 -1.60 -0.80 -1 -2 0.60 -1.20 0.40 -2 -0.60 -2 -1.20 0 -2.60 -2.20 -3.20 -5 -0.80 -2.80 -2.20 -5 -3.40 -5 -1.20 0 -1.40 -0.80 -0.80 -2 0.60 -1.20 0.20 -2 -1 -2 -1.20 0 -1.60 -0.80 -1 -2 0.60 -1 0.40 -2 -0.60 -2 -1.20 0 -2.60 -2.20 -3.20 -5 -0.80 -2.80 -2.20 -5 -3.40 -5 -1.20 0 -1.40 -0.80 -0.80 -2 0.60 -1 0.20 -2 -1 -2 -1.20 0 -1.60 -0.80 -1 -2 0.60 -1 0.40 -2 -0.60 -2 -1.20 0 -2.60 -2.20 -3.20 -5 -0.80 -2.80 -2.20 -5 -3.40 -5 -1.20 0 -1.40 -0.80 -0.80 -2 0.60 -1 0.20 -2 -1 -2 -1.20 0 -1.60 -0.80 -1 -2 0.60 -1 0.40 -2 -0.60 -2 -1.20 0 -2.60 -2.20 -3.20 -5 -0.80 -2.80 -2.20 -5 -3.40 -5 -1.20 0 -1.40 -0.80 -0.80 -2 0.60 -1 0.20 -2 -1 -2 -1.20 0 -1.60 -0.80 -1 -2 0.60 -1 0.40 -2 -0.60 -2 -1.20 0 -2.60 -2.20 -3.20 -5 -0.80 -2.80 -2.20 -5 -3.40 -5 -1.20 0 -1.40 -0.80 -0.80 -2 0.60 -1 0.20 -2 -1 -2 -1.20 0 -1.60 -0.80 -1 -2 0.60 -1 0.40 -2 -0.60 -2 -1.20 0 -2.60 -2.20 -3.20 -5 -0.80 -2.80 -2.20 -5 -3.40 -5 -1.20 0 -1.40 -0.80 -0.80 -2 0.60 -1 0.20 -2 -1 -2 -1.20 0 -1.60 -0.80 -1 -2 0.60 -1 0.20 -2 -0.80 -2 -1.20 0 -2.20 -1.20 -2.20 -2.80 0 -1.60 -1.40 -4.40 -3.40 -6.20 -3 -3.20 -3 -3.40 1.40 -2.60 3.80 0.40 32.20 50.40 171 300.20 91.60 164.60 166 299.60 165.20 300 -0.60 0.20 -25.60 0.20 -55.20 -0.20z"/>
  <path d="M9123.60 1120.60 l-49.60 -0.60 0 -22 0 -22 32.20 0 c25.20 0 32.80 -0.60 35 -2.80 2.40 -2.60 2.80 -42.20 2.80 -278 l0 -275.20 15 0 15 0 0 301 c0 165.60 -0.20 300.80 -0.40 300.60 -0.40 -0.40 -22.80 -0.80 -50 -1z"/>
  <path d="M10206.80 1120.40 l-28.20 -0.60 -226.80 -205 c-245.40 -222 -268 -242.80 -283.80 -263.40 -5.80 -7.40 -10.80 -13.20 -11.20 -13 -0.20 0.40 0.20 7.80 1.40 16.60 2.80 24.60 6.20 302.60 4.80 388.60 l-1.40 76.40 -45.80 0 -45.80 0 0 -22 0 -22 28.20 0 c21.60 0 28.80 -0.60 31 -2.80 2.40 -2.40 2.80 -30.80 2.80 -192 0 -138.40 -0.60 -189.20 -2.20 -189.20 -1.60 0 -1.80 -6.60 -0.80 -23 1 -16.40 0.80 -23 -0.80 -23 -1.60 0 -1.80 -4.40 -1 -14 1 -10 0.80 -14 -1 -14 -1.60 0 -1.80 -3.40 -1 -11.20 1 -8.60 0.80 -11.60 -1.40 -13 -2.40 -1.40 -2.40 -1.80 0.20 -1.60 1.60 0 9.40 8.20 17 18.20 11.60 14.80 56.20 56.20 260.60 241.20 l246.80 223.40 26.80 0.60 26.80 0.60 0 -278.60 0 -278.60 16.60 0.60 c9 0.40 16.80 1.20 17.40 1.80 0.60 0.60 1 135.40 1 300 0 164.40 -0.40 299.20 -1 299.20 -0.60 0.20 -13.60 0.20 -29.20 -0.20z"/>
  <path d="M13043.60 1120.40 l-49.60 -0.40 0 -22 0 -22 32.20 0 c25.20 0 32.80 -0.60 35 -2.80 2.40 -2.60 2.80 -42.20 2.80 -278 l0 -275.20 15 0 15 0 0.40 300.20 c0.40 165 0.20 300.40 -0.40 300.40 -0.60 0.20 -23.20 0.20 -50.40 -0.20z"/>
  <path d="M15547.60 1098.40 l-0.60 -22.40 34.60 0 34.40 0 0 -278 0 -278 16 0 16 0 0 300 0 299.80 -49.80 0.60 -50 0.60 -0.60 -22.60z"/>
  <path d="M17081.60 1098.40 l-0.60 -22.40 34.60 0 34.80 0 -0.80 -137 c-0.40 -113.60 -0.20 -136.80 2 -136 1.60 0.60 108.80 1 238.60 1 l235.80 0 0 25 0 25 -15 0 c-12 0 -15 -0.60 -15 -3 0 -2.60 -24.40 -3 -207 -3 l-207 0 0 136 0 135.80 -49.80 0.60 -50 0.60 -0.60 -22.60z"/>
  <path d="M17657.60 1098.40 l-0.60 -22.40 31.60 0 c24.80 0 32.40 -0.60 34.60 -2.80 2.40 -2.60 2.80 -42.20 2.80 -278 l0 -275.20 15.60 0 15.40 0 -0.40 300 -0.60 300.20 -48.80 0.40 -49 0.40 -0.60 -22.60z"/>
  <path d="M18287.60 1098.40 l-0.60 -22.40 31.60 0 c24.80 0 32.40 -0.60 34.60 -2.80 2.40 -2.60 2.80 -39.80 2.80 -260 l0 -257.20 135.20 0 c114.40 0 135.60 -0.40 138 -2.80 2 -2 2.80 -7.60 2.80 -18.60 l0 -15.60 16 0.60 16 0.80 -0.40 39.80 -0.60 40 -135.80 -0.20 c-98.40 0 -136.40 0.60 -138.40 2.20 -2.40 2 -2.80 44.40 -2.80 260.60 l0 258.20 -48.80 0 -49 0 -0.60 -22.60z"/>
  <path d="M19058 1119.80 c-87.40 -1.20 -92.20 -1.80 -114.60 -13.20 -18.20 -9.20 -41.40 -35.60 -41.40 -47.20 0 -3.40 0.40 -3.40 7 0.60 3.80 2.40 7 3.60 7 3 0 -0.80 1.40 -0.40 3 1 1.60 1.40 3 1.80 3 1 0 -0.80 1.40 -0.40 3 1 1.60 1.20 3.80 1.80 4.80 1.20 1 -0.80 2.40 -0.40 3.20 0.80 0.80 1.20 2 1.60 3 1 1 -0.60 2.40 -0.20 3 1 0.80 1.20 3 1.60 5 1 2 -0.60 4.20 -0.20 5 1 0.80 1.40 3.80 1.80 7 1 3 -0.60 6.20 -0.40 6.80 0.80 1.60 2.40 423.20 2 423.20 -0.60 0 -1 3.60 -1.20 8 -0.40 5.40 0.80 8 0.60 8 -1 0 -1.40 1.80 -1.80 5 -1 2.80 0.80 5 0.40 5 -0.60 0 -1 2.40 -2.40 5.60 -3.20 7.60 -1.80 29.20 -11.60 30 -13.40 0.40 -0.80 2.40 -1.60 4.60 -1.60 2.20 0 4.60 -1.80 5.40 -4.20 0.80 -2.20 3.80 -5.20 6.40 -6.60 2.80 -1.40 4.80 -4 4.80 -5.80 -0.20 -1.80 0.80 -3.40 2.20 -3.40 3 0 10 -15 8.20 -17.80 -0.80 -1.20 -0.40 -2.20 0.80 -2.20 1.20 0 1.60 -0.80 1 -2 -0.60 -1 -0.20 -2 1 -2 1.40 0 1.80 -1.60 1 -4 -0.80 -2.40 -0.40 -4 1 -4 1.40 0 1.80 -1.60 1 -4 -0.80 -2.40 -0.40 -4 1.20 -4 1.40 0 1.80 -2 1.20 -6 -0.80 -3.40 -0.40 -6 0.60 -6 1.20 0 1.60 -7.40 0.80 -20 -1 -14.60 -0.80 -20 0.80 -20 1.80 0 2.40 -13 2.40 -47 0 -32.20 -0.60 -47 -2.20 -47 -1.40 0 -1.60 -3.60 -0.80 -11 1 -7.80 0.80 -11 -0.80 -11 -1.60 0 -2 -2.20 -1 -7 0.80 -4.60 0.40 -7 -1 -7 -1.40 0 -1.80 -1.80 -1 -5.20 0.80 -3 0.40 -5.80 -0.80 -6.60 -1.20 -0.80 -1.40 -2.40 -0.60 -3.80 2.20 -3.80 18.60 15 25 28.60 8.20 17.20 11.20 33.60 13.20 73 4.80 94.20 -0.20 150.40 -15.40 178.40 -10.20 18.80 -31.60 33.60 -59.40 41 -10.60 3 -31.20 3.60 -160.20 4.40 -81.40 0.60 -184.40 0.60 -229 0z"/>
  <path d="M1393.40 1116 c-33.80 -7.20 -56 -21.80 -67.40 -44.40 -6.60 -13.40 -6.20 -17.20 1.20 -12.40 2.60 1.80 4.80 2.60 4.80 1.80 0 -0.80 2.20 0 5 1.80 2.80 1.80 5 2.80 5 2 0 -0.80 1.40 -0.20 3 1.20 1.60 1.40 3 1.80 3 1 0 -0.80 1.40 -0.40 3 1 1.60 1.20 3.80 1.80 4.80 1.20 1 -0.80 2.60 -0.40 3.20 0.80 0.80 1.20 3 1.60 5 1 2 -0.60 4.20 -0.20 5 1 0.80 1.40 3.60 1.80 6 1.20 2.60 -0.60 5.40 -0.40 6 0.80 1.80 3 433 2.80 433 -0.20 0 -1.60 2.40 -2 7 -1.20 4.20 0.80 7 0.40 7 -1 0 -1.20 2.20 -1.60 5 -1.20 2.80 0.60 5 0.20 5 -1 0 -1 1.80 -1.40 4 -0.80 2.20 0.60 4 0.20 4 -1 0 -1.20 1.40 -1.60 3 -0.80 1.60 0.60 3 0.40 3 -0.60 0 -0.80 4.80 -3.60 10.60 -6.40 5.60 -2.60 11.20 -5.80 12 -7.20 0.80 -1.40 3.20 -2.60 5.20 -2.60 4.40 0 13 -9 11.20 -11.80 -0.60 -1.20 0.20 -2.20 2 -2.20 2.20 0 3 -1 2.20 -3 -0.60 -1.80 0 -3 1.60 -3 3.20 0 8.20 -10.80 6.20 -13.80 -0.60 -1.20 -0.20 -2.20 1 -2.20 1.20 0 1.60 -0.80 1 -2 -0.60 -1 -0.20 -2 1 -2 1.40 0 1.80 -1.60 1 -4 -0.80 -2.40 -0.40 -4 1 -4 1.40 0 1.80 -1.60 1 -4 -0.80 -2.40 -0.40 -4 1 -4 1.60 0 2 -1.80 1.20 -5 -0.80 -3.20 -0.40 -5 1 -5 1.40 0 1.80 -2.40 1 -7 -0.80 -3.80 -0.60 -7 0.40 -7 0.80 0 1.20 -18 0.80 -40 -0.60 -28.80 -0.20 -40 1.40 -40 1.60 0 2.20 -49 2.20 -185 l0 -185 15.60 0 15.80 0 -0.80 241.40 c-0.40 151.60 -1.40 248.60 -2.80 260.60 -2.40 20.80 -9.20 44 -16.60 55.60 -6.20 9.80 -20.80 23 -31.40 28.60 -4.80 2.40 -19.20 6.40 -31.80 9 l-23 4.80 -216 -0.20 c-202.40 0 -217.20 -0.40 -233.60 -3.80z"/>
  <path d="M4900 1098.20 l0 -21.80 101.40 -1.40 c56 -0.80 137.40 -0.80 181 0 62.60 1.20 79.60 1 79.60 -1 0 -1.80 3 -2.20 12 -1.20 8.60 1 12 0.80 12 -1 0 -1.60 2.40 -2 8 -1 5.40 0.80 8 0.60 8 -1 0 -1.60 2.40 -2 7 -1.20 4.40 0.80 7 0.40 7 -1 0 -1.20 2.40 -1.60 6 -0.80 3.80 0.60 6 0.20 6 -1 0 -1.40 2 -1.80 5 -1 3.20 0.80 5 0.40 5 -1 0 -1.20 1.80 -1.80 4 -1.20 2.20 0.60 4 0.20 4 -1 0 -1.20 1.80 -1.60 4 -1 2.20 0.60 4 0.20 4 -1 0 -1.20 1.80 -1.60 4 -1 2.20 0.60 4 0.40 4 -0.40 0 -2 27.60 -10.60 29.80 -9.20 1.20 0.60 2.60 -0.20 3.60 -1.80 2.20 -3.60 21.40 -13.20 26.60 -13.20 2.20 0 4 -1.40 4 -3 0 -1.60 1.40 -3 3 -3 1.60 0 3 -0.80 3 -2 0 -1 1.40 -2 3 -2 1.60 0 3 -0.80 3 -2 0 -1 1.80 -2 4 -2 2.20 0 4 -1.40 4 -3 0 -1.60 1.80 -3 4 -3 2.60 0 4.80 -2 6 -5 1 -2.80 3.40 -5 5.60 -5 4.40 0 18.80 -14.40 18 -18 -0.40 -1.40 2.20 -4 5.40 -6 3.40 -1.80 6 -4.60 6 -6.20 0 -1.60 1.60 -3.40 3.80 -4.40 2.20 -0.80 3.20 -2.60 2.40 -4.40 -0.60 -1.80 0.20 -3 2 -3 2 0 2.80 -1.20 2 -3 -0.60 -1.80 0 -3 2 -3 2 0 2.80 -1.20 2 -3 -0.60 -1.80 0 -3 2 -3 2 0 2.80 -1.20 2 -3 -0.60 -1.60 -0.20 -3 1 -3 1.20 0 1.40 -0.80 0.80 -2 -0.60 -1 0 -2 1.60 -2 3.20 0 6 -5.40 4.20 -8.20 -0.60 -1 0 -1.80 1.20 -1.80 1.20 0 1.60 -0.80 1 -2 -0.60 -1 -0.20 -2 1 -2 1.20 0 1.60 -0.80 1 -2 -0.60 -1 -0.20 -2 1.20 -2 1.40 0 2 -0.60 1.40 -1.20 -0.80 -0.60 0.60 -3 2.80 -5.20 2.40 -2.40 3.60 -5.60 3 -7.80 -0.60 -2 -0.20 -3.80 1 -3.80 1 0 1.20 -0.80 0.60 -2 -0.60 -1 -0.20 -2 1 -2 1.40 0 2 -1.40 1.20 -3 -0.60 -1.60 -0.20 -3 1 -3 1.20 0 1.80 -1.40 1 -3 -0.60 -1.60 -0.20 -3 1 -3 1.20 0 1.40 -0.80 0.80 -2 -0.60 -1 -0.20 -2 1.20 -2 1.20 0 1.80 -1.60 1.20 -4 -0.60 -2.20 -0.20 -4 1 -4 1.20 0 1.60 -1.40 0.80 -3 -0.60 -1.60 -0.20 -3 1 -3 1.20 0 1.60 -1.80 0.80 -4 -0.80 -2.40 -0.40 -4 1 -4 1.40 0 1.80 -1.60 1 -4 -0.80 -2.40 -0.40 -4 1 -4 1.40 0 2 -1.60 1.40 -4 -0.60 -2.20 -0.20 -4 1 -4 1.20 0 1.40 -2.20 0.80 -5 -0.80 -3.20 -0.40 -5 1 -5 1.40 0 1.80 -2.40 1 -7 -1 -4.80 -0.60 -7 1 -7 1.60 0 1.80 -2.80 1 -9 -0.80 -5 -0.60 -9 0.20 -9 1 0 1.80 -14.40 1.80 -32 0 -17.60 -0.80 -32 -1.60 -32 -1 0 -1.20 -4 -0.40 -9 0.80 -6 0.60 -9 -1 -9 -1.20 0 -1.60 -2.20 -0.80 -6 0.60 -3.80 0.20 -6 -1.20 -6 -1.20 0 -1.60 -2.20 -1 -6 0.80 -3.60 0.40 -6 -0.80 -6 -1 0 -1.60 -1.80 -1 -4 0.60 -2.20 0.20 -4 -1 -4 -1.20 0 -1.60 -1.80 -1 -4 0.60 -2.20 0 -4 -1.20 -4 -1 0 -1.60 -1.40 -1 -3 0.80 -1.60 0.20 -3 -1.20 -3 -1.20 0 -1.60 -1 -1 -2 1.60 -2.60 -4.60 -22 -7 -22 -1 0 -1.40 -1.40 -0.80 -3 0.80 -1.60 0.40 -3 -0.60 -3 -1 0 -1.80 -2 -2 -4.40 -0.20 -2.20 -1.60 -5 -3 -5.80 -1.40 -1 -2 -1.80 -1.20 -1.80 0.80 0 0.60 -2.40 -0.40 -5.40 l-2 -5.60 4 5 c7.40 9 24 37.40 31.20 53.20 9.60 21 19.60 55.40 24 81.80 5 29.60 5 88 0.20 115 -12.60 69.40 -36.80 119.40 -78 161.80 -37.80 39 -79.60 59.80 -143.20 71.20 -46.80 8.40 -64.20 9 -267.60 9 l-194.60 0 0 -21.80z"/>
  <path d="M10766 1098 l0 -22 34 0 34 0 -0.40 -260.40 -0.60 -260.60 138 0.60 138 0.40 -0.80 -19.20 c-0.60 -17.60 -0.20 -19.20 2.80 -18 1.80 0.60 9.60 1.20 17.20 1.20 l13.80 0 0 40 0 40 -137.40 0.40 -137.60 0.60 -0.60 259.60 -0.40 259.40 -50 0 -50 0 0 -22z"/>
  <path d="M11469 1116.80 c-29.80 -6.40 -56.40 -25.40 -66.60 -47.20 -4.60 -9.80 -6 -17.20 -2.40 -11.60 1 1.60 2 2.20 2 1.20 0 -1 1.40 -0.40 3.40 1 1.80 1.60 3.60 2.60 3.80 2.40 0.40 -0.20 4 1 7.80 2.60 4 1.60 8 2.40 9 1.80 1 -0.60 2.20 -0.20 3 1 0.80 1.20 2.20 1.60 3.20 0.80 1 -0.60 3.20 0 4.80 1.20 1.60 1.20 3.80 1.80 4.80 1.20 1 -0.80 2.60 -0.20 3.20 0.80 0.80 1.40 3.80 1.80 7 1 3.20 -0.60 6.20 -0.40 7 0.80 1.60 2.60 489 2 489 -0.60 0 -1 3.20 -1.20 7 -0.60 4.20 0.80 7 0.40 7 -1 0 -1.20 2.20 -1.60 5 -1.20 2.80 0.60 5 0.20 5 -1 0 -1 1.80 -1.40 4 -0.80 2 0.60 4.20 0 4.40 -1 0.40 -1.20 3.80 -2.20 7.40 -2.60 3.60 -0.20 7.20 -1.60 8.20 -2.80 0.80 -1.40 3.20 -2.20 5.20 -1.80 2.20 0.40 3.60 -0.40 3.40 -1.80 -0.40 -1.40 1.60 -3 4.20 -3.80 2.80 -0.60 5.40 -2.40 6 -4 0.60 -1.60 2.80 -2.80 4.80 -2.80 4.60 0 11.20 -7 9.40 -9.80 -0.60 -1.20 0.20 -2.20 1.80 -2.20 3.80 0 10 -11.20 8.40 -15.20 -0.60 -1.60 -0.20 -2.80 1 -2.80 1.20 0 1.40 -0.80 0.80 -2 -0.60 -1 -0.20 -2 1 -2 1.40 0 2 -1.40 1.20 -3 -0.60 -1.60 0 -3 1 -3 1.20 0 1.80 -1.80 1.20 -4 -0.60 -2.20 -0.20 -4 1 -4 1 0 1.20 -1.80 0.60 -4 -0.80 -2.40 -0.40 -4 1 -4 1.60 0 2 -1.80 1.20 -5 -0.80 -3.20 -0.40 -5 1 -5 1.60 0 1.80 -2.60 1 -8 -0.60 -4.40 -0.60 -8 0.20 -8 1 0 1.60 -84.60 1.60 -188 0 -103.40 -0.60 -188 -1.40 -188 -0.80 0 -1 -4 -0.20 -9 0.80 -6 0.40 -9 -1 -9 -1.40 0 -1.80 -2.20 -1 -6 0.60 -3.80 0.20 -6 -1.20 -6 -1.40 0 -1.80 -1.80 -1 -5.20 0.80 -3 0.40 -5.80 -0.80 -6.60 -1.40 -0.80 -1.60 -2.20 -0.20 -4.20 1.60 -2.40 3.40 -1.40 10 6 15.80 17.40 24.20 41.40 27.80 79 2.60 28.80 2.60 348.40 0 378.60 -5.60 64 -25.60 93.40 -73.20 107.60 -11 3.40 -27.80 3.60 -269.80 4 -223.40 0.40 -259.80 0.20 -272 -2.40z"/>
  <path d="M13490 1097.20 l0 -23 27.80 1.20 c23.80 1 28.40 0.80 31 -2 2.80 -2.80 3.20 -22.80 3.20 -194.20 0 -138.80 -0.60 -191.20 -2.20 -191.20 -1.60 0 -1.80 -6.40 -0.80 -22 1 -16 0.80 -22 -0.80 -22 -1.60 0 -2 -3.80 -1 -13 1 -9.60 0.80 -13 -1 -13 -1.80 0 -2.20 -3 -1 -11.20 1 -8.60 0.60 -11.60 -1.40 -13 -2.40 -1.40 -2.20 -1.80 0.20 -1.60 1.60 0 9.40 8.20 17 18.20 11.60 15 56 56 260.80 241.20 l246.60 223.40 26.80 0.60 26.80 0.60 0 -52.20 c0 -33.40 0.80 -52 2 -52 1.40 0 2 -76.60 2 -226 l0 -226 16.40 0 16.20 0 -1.20 126.40 c-0.80 69.40 -1.40 204.40 -1.40 300 l0 173.60 -28.40 0 -28.60 0 -80 -72.40 c-44 -39.60 -151.60 -136.80 -239 -215.60 -157.60 -142 -180.60 -164 -194 -183.80 -8 -11.80 -11 -12.80 -9.20 -3.60 5 28.40 9 284.20 6.20 408.20 l-1.40 67.20 -45.80 0 -45.80 0 0 -22.80z"/>
  <path d="M14612 1117 c-36 -7.20 -60.40 -24.40 -71 -49.80 -3.40 -8.20 -4 -14 -1 -9.20 1 1.60 2 2.20 2 1.20 0 -1 1.40 -0.60 3 0.80 1.60 1.40 3 2 3 1.20 0 -0.80 2.20 0.20 5 2 2.80 1.80 5 2.60 5 1.80 0 -0.80 1.40 -0.40 3 1 1.60 1.20 3.80 1.80 4.80 1.20 1 -0.80 2.40 -0.40 3.20 0.80 0.80 1.20 2 1.60 3 1 1 -0.60 2.40 -0.20 3 1 0.80 1.20 3 1.60 5 1 2 -0.60 4.20 -0.20 5 1 0.80 1.40 3.80 1.80 7 1 3.20 -0.60 6.20 -0.40 7 0.80 1.80 3.20 423 3 423 0 0 -1.60 2.80 -2 8 -1.20 4.80 0.60 8 0.20 8 -1 0 -1.20 2.20 -1.60 5 -1.20 2.80 0.60 5 0.20 5 -1 0 -1 1.80 -1.40 4 -0.80 2.20 0.60 4 0.20 4 -0.60 0 -1.40 9.20 -4.60 15 -5 5.40 -0.60 11 -3.60 11 -6.20 0 -1.60 1.80 -2.80 4 -2.80 2.20 0 4 -1.20 4 -2.60 0 -3.20 7.40 -10.20 12.80 -12.20 2.20 -0.80 3.20 -2.40 2.40 -4.20 -0.60 -1.80 0 -3 1.60 -3 3.20 0 10.20 -14.80 8.40 -17.80 -0.80 -1.20 -0.40 -2.20 0.80 -2.20 1.40 0 2 -1.40 1.20 -3 -0.60 -1.60 -0.20 -3 1 -3 1.20 0 1.80 -1.40 1 -3 -0.60 -1.60 -0.20 -3 1 -3 1.40 0 1.80 -2 1 -5 -0.80 -3.20 -0.40 -5 1 -5 1.40 0 1.80 -2.20 1.20 -6 -0.80 -3.60 -0.40 -6 0.80 -6 1.40 0 1.60 -4.80 0.80 -15 -1 -10 -0.80 -15 0.60 -15 1.40 0 2 -16.20 2 -48 0 -26.40 -0.80 -48 -1.80 -48 -1 0 -1.20 -5.40 -0.40 -12 0.80 -7.80 0.40 -12 -1 -12 -1.20 0 -1.60 -3 -1 -8 0.80 -5.20 0.40 -8 -1 -8 -1.40 0 -1.80 -2.20 -1 -6.20 0.80 -4.20 0.20 -6.80 -1.60 -8 -2.20 -1.20 -2.20 -2.20 -0.40 -4 2 -2 4.20 -0.60 10.80 6.20 10.20 10.80 19 28.80 22.80 47.20 7.80 38 9 149.60 2 189.60 -7.40 41.80 -29 66 -70.20 78.40 -11 3.40 -26.80 3.60 -235.80 4 -179 0.40 -226.60 0 -237 -2.20z"/>
  <path d="M16120 1117 c-34.40 -6.80 -59 -24.40 -69.80 -49.40 l-4 -9.40 5 1.80 c2.60 1 4.80 1.40 4.80 0.80 0 -0.80 1.40 -0.20 3 1.20 1.60 1.40 3 1.80 3 1 0 -0.80 1.40 -0.40 3 1 1.60 1.40 3 1.80 3 1 0 -0.80 1.40 -0.40 3 1 1.60 1.40 3 1.80 3 1 0 -0.80 1.40 -0.40 3 1 1.60 1.20 3.80 1.80 4.80 1.20 1 -0.80 2.60 -0.20 3.20 1 0.80 1 2.60 1.60 4.20 1 1.40 -0.60 3.20 -0.20 4 1 0.60 1.20 3.80 1.40 6.80 0.80 3.20 -0.60 6.20 -0.40 7 0.80 1.80 3.20 461 3 461 0 0 -1.60 2.80 -2 8 -1.20 4.80 0.60 8 0.20 8 -1 0 -1.20 2.20 -1.60 5 -1.20 2.60 0.60 5.20 0.40 5.40 -0.20 0.80 -1.80 23.60 -9.20 28.60 -9.40 2.20 0 3.80 -1.20 3.40 -2.40 -0.20 -1.40 1 -2.40 2.60 -2.40 1.60 0 3 -0.80 3 -2 0 -1 1 -2 2 -2 1.20 0 4.80 -3.20 8.20 -7 3.40 -3.80 7.40 -7 9 -7 3.20 0 7.40 -7.20 5.80 -10 -0.60 -1.20 0.20 -2 1.80 -2 3.20 0 6.20 -6.80 4.20 -10 -0.60 -1 -0.20 -2 1 -2 1.20 0 1.60 -0.80 1 -2 -0.60 -1 -0.20 -2 1 -2 1.40 0 2 -1.40 1.20 -3 -0.60 -1.60 0 -3 1 -3 1.20 0 1.80 -1.80 1.20 -4 -0.60 -2.20 -0.20 -4 1 -4 1.20 0 1.40 -2.20 0.80 -5 -0.80 -3 -0.40 -5 1 -5 1.40 0 1.80 -2.60 0.80 -8 -1 -5.40 -0.60 -8 0.80 -8 1.80 0 2 -11 1 -40 -1 -29.80 -0.80 -40 0.80 -40 1.80 0 2.40 -14.20 2.40 -53 l0 -53 14.80 0 14.80 0 1.40 47.60 c1.80 54.40 -0.20 175.20 -3.20 194.40 -8 53.40 -34 81.80 -83.40 91.20 -20.80 4 -482.40 3.80 -502.40 -0.20z"/>
  <path d="M1380.40 992.60 c-1.20 -0.40 -2 -1.80 -1.20 -2.80 0.60 -1 0 -1.80 -1 -1.80 -1.60 0 -2.20 -70.60 -2.20 -234 l0 -234 17 0 17 0 0 214 c0 188.80 0.40 214 3 214 2.60 0 3 4 3 23.60 -0.20 20 -0.60 22.80 -2.80 19.80 -2.40 -3 -2.80 -3.20 -4 -0.40 -0.80 2.20 -4.20 3 -13.60 2.80 -7 0 -13.80 -0.60 -15.20 -1.20z"/>
  <path d="M4985.60 992.40 l-15.60 -0.60 0 -217.80 0 -217.60 130.60 -0.80 c74.60 -0.40 131.40 0.20 133 1.20 1.40 1 7.40 1.20 13.40 0.40 7 -0.80 11.20 -0.40 12.20 1 0.80 1.20 4 1.60 7.80 1 4 -0.80 7.20 -0.40 8 1 0.80 1.20 3.60 1.60 6 1 2.60 -0.60 5.40 -0.20 6 1 0.80 1.20 2.80 1.60 4.40 1 1.80 -0.80 4.40 -0.20 5.80 1 1.40 1.20 3.60 1.60 4.60 1 1 -0.80 2.60 -0.20 3.20 1 0.80 1 2.60 1.60 4.20 1 1.40 -0.60 3.20 -0.20 4 1 0.60 1.20 2.40 1.60 3.80 1 1.40 -0.40 3.20 -0.40 4 0.40 0.80 0.80 2.20 1.60 3.20 1.60 1 0.20 2.20 0.60 2.80 0.80 0.60 0.20 1.60 0.60 2.60 0.80 0.80 0.20 3.40 1.40 6 2.80 2.40 1.40 4.40 2 4.40 1.40 0 -0.60 2.20 0.40 5 2.20 2.80 1.80 5 2.60 5 2 0 -1.20 8.40 3 22.80 11.60 22.20 13.20 45.20 37.60 56.40 59.60 l4.80 9.60 -5.60 0 c-6.60 0 -12 -5 -14.20 -13.20 -1.20 -4.60 -4.80 -7.60 -17.40 -14.20 -27.60 -14.80 -66.60 -25.60 -108.80 -30.60 -25.20 -2.80 -187.40 -5 -242.40 -3 l-43.60 1.40 0 172.80 c0 152.20 0.40 172.80 3 172.80 2.40 0 3 3.80 3 21.80 0 25.20 1.60 23.60 -22.40 22.60z"/>
  <path d="M11471.60 992.40 l-15.60 -0.60 0 -217.80 0 -218 249 -0.40 249 -0.60 0.20 23 c0.20 20.80 0 28.60 -0.80 29.20 -0.20 0 -7 -0.20 -14.80 -0.80 -10.80 -0.60 -14.60 -1.60 -14.60 -3.60 0 -2.40 -32.80 -2.80 -217.40 -2.40 l-217.60 0.60 -0.60 173.60 c-0.40 153.20 0 173.40 2.60 173.40 2.40 0 3 3.80 3 21.80 0 25.20 1.60 23.60 -22.40 22.60z"/>
  <path d="M14587.40 990.60 c-0.80 -0.60 -1.40 -10.40 -1.40 -21.60 l0 -20.20 14.60 -3.40 c17.60 -4.20 19.40 -4.20 19.40 -0.40 0 1.60 1.40 3 3 3 2.40 0 3 3.80 3 22 l0 22 -18.60 0 c-10.40 0 -19.40 -0.60 -20 -1.40z"/>
  <path d="M16103.60 773.60 l-0.60 -218.60 236.40 0 236.60 0 0 22.40 0 22.60 -219.40 0.40 -219.60 0.60 -0.60 173.60 c-0.40 153.20 0 173.40 2.60 173.40 2.40 0 3 3.80 3 22 l0 22 -19 0 -19 0 -0.40 -218.40z"/>
  <path d="M18951.40 990.60 c-0.80 -0.60 -1.40 -10.40 -1.40 -21.60 l0 -20.20 14.60 -3.40 c17.60 -4.20 19.40 -4.20 19.40 -0.40 0 1.80 1.40 3.60 3 4.20 2.40 1 3 5.40 3 22 l0 20.80 -18.60 0 c-10.40 0 -19.40 -0.60 -20 -1.40z"/>
  <path d="M2763 885.40 c-4.60 -3.40 -17.60 -14.40 -29 -24.40 l-20.60 -18 31.80 -1.60 c17.40 -0.80 41 -1 52.40 -0.20 15.20 0.80 20.40 0.40 20.40 -1.40 0 -1.60 2.40 -2 8 -1 5.40 0.80 8 0.60 8 -1 0 -1.40 2 -1.80 5 -1.40 2.60 0.60 5.20 0.20 5.40 -0.80 0.40 -1 4 -2 8.20 -2.20 4 -0.20 7.40 -1.20 7.40 -2 0 -1 1.80 -1.20 3.80 -0.40 2.60 0.80 5.80 -0.60 9.40 -4 3 -2.80 6.60 -5 8 -5 1.60 0 2.80 -0.80 2.80 -2 0 -1 1.40 -2 3 -2 1.60 0 3 -0.80 3 -2 0 -1 1.60 -2 3.60 -2 4.80 0 11.20 -7 9.40 -10 -0.80 -1.40 0.40 -2.80 3 -3.40 2.60 -0.60 3.80 -2.20 3.20 -3.80 -0.60 -1.60 0.20 -2.80 1.60 -2.80 3.20 0 8.20 -10.80 6.20 -13.80 -0.60 -1.20 -0.20 -2.20 1 -2.20 1.40 0 2 -1.40 1.20 -3 -0.60 -1.60 -0.20 -3 1 -3 1.20 0 1.80 -1.40 1 -3 -0.60 -1.60 -0.20 -3 1 -3 1.40 0 1.80 -2 1 -5 -0.80 -2.80 -0.40 -5 0.60 -5 1.20 0 1.40 -8.60 0.80 -22 -0.80 -16 -0.60 -22 1.20 -22 1.60 0 2.20 -15.40 2.20 -57 0 -41.60 -0.60 -57 -2.20 -57 -1.80 0 -2 -5 -1.20 -18 1 -11.60 0.60 -18 -0.60 -18 -1.20 0 -1.60 -2.20 -0.80 -5.20 0.80 -3.20 0.40 -5.80 -1.20 -6.80 -1.60 -1 -1.80 -2.60 -0.60 -4.80 1.60 -3 3.20 -2 11.40 6.80 5.20 5.60 11.80 15 14.40 21 10 21.80 11 32.80 11.40 128 0.20 78.40 0 89.80 -3.40 104 -9.80 43.40 -32.40 66.20 -75.20 76 -10.20 2.40 -27.60 3.80 -54.60 4.60 -33 0.80 -39 1.40 -37.20 3.60 1.80 2.40 0.60 2.80 -7.40 2.80 -8 0 -11.20 -1.20 -17.80 -6.60z"/>
  <path d="M16546 863.60 c0 -3.40 -4.80 -3.60 -90.40 -3.60 l-90.60 0.20 -0.60 -23.20 -0.60 -23 105.60 0.40 105.60 0.60 0.60 26.20 0.60 26.40 -15.20 -0.20 c-13 -0.20 -15 -0.80 -15 -3.80z"/>
  <path d="M15008 859 c0 -2.60 -20 -3 -167.80 -3 -104 0 -175.60 -0.80 -188.40 -2.20 -43.20 -4.40 -71.60 -19.60 -84.80 -45.80 -6.20 -12.20 -6.20 -14.20 -0.40 -13.20 2.40 0.60 4.60 1 5 1.40 0.20 0.20 1 0.40 2 0.60 0.80 0.20 3.60 1.60 6 3 2.60 1.40 5.20 2 5.80 1.40 0.80 -0.60 2.40 -0.20 4 1 1.40 1.20 2.60 1.60 2.60 0.80 0 -0.80 1.40 -0.40 3 1 1.60 1.20 3.80 1.80 4.80 1.20 1 -0.80 2.60 -0.20 3.20 1 0.80 1.20 3.60 1.60 6 1 2.60 -0.60 5.40 -0.20 6 0.80 0.80 1.40 4.80 1.60 10 1 5.40 -1 9 -0.60 9.80 0.80 1 1.60 58.80 2.20 202.40 2.20 l200.80 0 0 25 0 25 -15 0 c-12 0 -15 -0.60 -15 -3z"/>
  <path d="M19372 859 c0 -2.40 -24 -3 -181.40 -3.60 -199.80 -0.60 -194.40 -0.40 -221.80 -13.20 -21 -9.80 -33.80 -22.40 -41.40 -40.80 -3.20 -7.40 -3.20 -7.60 1.20 -6.80 2.40 0.40 7.80 2.40 12 4.20 4.20 1.80 8.40 2.80 9.40 2.20 1 -0.60 2.20 -0.20 3 1 0.80 1.20 2 1.60 3 1 1 -0.60 2.40 -0.20 3 1 0.80 1.20 3 1.60 5 1 2 -0.60 4.20 -0.20 5 1 0.80 1.20 3 1.60 5 1 2 -0.60 4.20 -0.20 5 1 0.80 1.20 5 1.60 10.80 0.80 6.20 -0.80 10.20 -0.40 11 1 1 1.60 56.80 2.20 201.40 2.20 l199.80 0 0 25 0 25 -15 0 c-11.80 0 -15 -0.60 -15 -3z"/>
  <path d="M5997.40 848 c-0.60 -2.20 -0.20 -4 1 -4 1 0 1.20 -0.80 0.60 -2 -0.60 -1 -0.20 -2 1 -2 1.20 0 1.60 -0.80 1 -2 -0.60 -1 -0.20 -2 1 -2 1.20 0 1.60 -0.80 1 -2 -0.60 -1 0 -2 1.40 -2 3.20 0 14.20 -21.40 12.60 -24.20 -0.80 -1 -0.20 -1.80 1 -1.80 1.20 0 1.60 -0.80 1 -2 -0.60 -1 -0.20 -2 1 -2 1.20 0 1.60 -0.80 1 -2 -0.60 -1 -0.20 -2 1 -2 1.20 0 1.60 -0.80 1 -2 -0.60 -1 0 -2 1.40 -2 3.20 0 14.20 -21.40 12.60 -24.20 -0.80 -1 -0.20 -1.80 1 -1.80 1.20 0 1.60 -0.80 1 -2 -0.60 -1 -0.20 -2 1 -2 1.20 0 1.60 -0.80 1 -2 -0.60 -1 -0.20 -2 1 -2 1.20 0 1.60 -0.80 1 -2 -0.60 -1 -0.20 -2 1 -2 1.20 0 1.60 -0.80 1 -2 -0.60 -1 0 -2 1.40 -2 3.20 0 16.20 -25.40 14.60 -28.20 -0.80 -1 -0.20 -1.80 1 -1.80 1.20 0 1.60 -0.80 1 -2 -0.60 -1 -0.20 -2 1 -2 1.20 0 1.60 -0.80 1 -2 -0.60 -1 -0.20 -2 1 -2 1.20 0 1.60 -0.80 1 -2 -0.60 -1 0 -2 1.40 -2 3.20 0 14.20 -21.40 12.60 -24.20 -0.80 -1 -0.20 -1.80 1 -1.80 1.20 0 1.60 -0.80 1 -2 -0.60 -1 -0.20 -2 1 -2 1.20 0 1.60 -0.80 1 -2 -0.60 -1 -0.20 -2 1 -2 1.20 0 1.60 -0.80 1 -2 -0.60 -1 -0.20 -2 1 -2 1.20 0 1.60 -0.80 1 -2 -0.60 -1.20 0 -2 1.40 -2 3.20 0 14.20 -21.40 12.60 -24.20 -0.80 -1 -0.20 -1.80 1 -1.80 1.20 0 1.60 -1 1 -2 -0.60 -1.20 -0.20 -2 1 -2 1.20 0 1.60 -1 1 -2 -0.60 -1.20 -0.20 -2 1 -2 1.20 0 1.60 -1 1 -2 -0.60 -1.20 -0.20 -2 1 -2 1.20 0 1.60 -1 1 -2 -0.60 -1.20 0 -2 1.40 -2 3.20 0 14.20 -21.40 12.60 -24.20 -0.80 -1 -0.20 -1.80 1 -1.80 1.20 0 1.60 -0.80 1 -2 -0.60 -1 -0.20 -2 1 -2 1.20 0 1.60 -1 1 -2 -0.60 -1.20 -0.20 -2 1 -2 1.20 0 1.60 -0.80 1 -2 -0.60 -1 -0.20 -2 1 -2 1.20 0 1.60 -0.80 1 -2 -0.60 -1 0 -2 1.40 -2 3.20 0 14.20 -21.40 12.60 -24.20 -0.80 -1 -0.20 -1.80 1 -1.80 1.20 0 1.60 -0.80 1 -2 -0.60 -1 -0.20 -2 1 -2 1.20 0 1.60 -0.80 1 -2 -0.60 -1 -0.20 -2 1 -2 1.20 0 1.60 -0.80 1 -2 -0.60 -1 -0.20 -2 1 -2 1.20 0 1.60 -0.80 1 -2 -0.60 -1 0 -2 1.40 -2 3 0 24.60 38 26.60 47 0.80 3.40 2.80 8 4.40 10.60 3.40 5.60 1.60 9.60 -3 6 -1.80 -1.60 -3.40 -1.80 -3.80 -0.60 -0.40 1.20 -24.40 47 -53.40 102 -35 66.60 -51.60 100.20 -49.80 100.60 4.40 1.20 2.80 6.60 -7 25.40 l-9.40 18 -31.20 0.60 c-30 0.40 -31.40 0.40 -32.40 -3.60z"/>
  <path d="M7692 849.80 c-2.20 -1.60 -2.40 -2.40 -0.40 -3.20 1.20 -0.40 2 -1.80 1.20 -2.80 -0.60 -1 0 -1.80 1.20 -1.80 1.20 0 1.60 -0.80 1 -2 -0.60 -1 -0.20 -2 1 -2 1.20 0 1.60 -0.80 1 -2 -0.60 -1 0 -2 1.40 -2 3.20 0 14.20 -21.40 12.60 -24.20 -0.80 -1 -0.20 -1.80 1 -1.80 1.20 0 1.60 -0.80 1 -2 -0.60 -1 -0.20 -2 1 -2 1.20 0 1.60 -0.80 1 -2 -0.60 -1 -0.20 -2 1 -2 1.20 0 1.60 -0.80 1 -2 -0.60 -1 -0.20 -2 1 -2 1.20 0 1.60 -0.80 1 -2 -0.60 -1 0 -2 1.40 -2 3.20 0 14.20 -21.40 12.60 -24.20 -0.80 -1 -0.20 -1.80 1 -1.80 1.20 0 1.60 -0.80 1 -2 -0.60 -1 -0.20 -2 1 -2 1.20 0 1.60 -0.80 1 -2 -0.60 -1 -0.20 -2 1 -2 1.20 0 1.60 -0.80 1 -2 -0.60 -1 -0.20 -2 1 -2 1.20 0 1.60 -0.80 1 -2 -0.60 -1 0 -2 1.40 -2 3.20 0 14.20 -21.40 12.60 -24.20 -0.80 -1 -0.20 -1.80 1 -1.80 1.20 0 1.60 -0.80 1 -2 -0.60 -1 -0.20 -2 1 -2 1.20 0 1.60 -0.80 1 -2 -0.60 -1 -0.20 -2 1 -2 1.20 0 1.60 -0.80 1 -2 -0.60 -1 -0.20 -2 1 -2 1.20 0 1.60 -0.80 1 -2 -0.60 -1 0 -2 1.40 -2 3.20 0 14.20 -21.40 12.60 -24.20 -0.80 -1 -0.20 -1.80 1 -1.80 1.20 0 1.60 -0.80 1 -2 -0.60 -1 -0.20 -2 1 -2 1.20 0 1.60 -0.80 1 -2 -0.60 -1 -0.20 -2 1 -2 1.20 0 1.60 -0.80 1 -2 -0.60 -1 -0.20 -2 1 -2 1.20 0 1.60 -0.80 1 -2 -0.60 -1 0 -2 1.40 -2 3.20 0 14.20 -21.40 12.60 -24.20 -0.80 -1 -0.20 -1.80 1 -1.80 1.20 0 1.60 -0.80 1 -2 -0.60 -1 -0.20 -2 1 -2 1.20 0 1.60 -0.80 1 -2 -0.60 -1 -0.20 -2 1 -2 1.20 0 1.60 -0.80 1 -2 -0.60 -1 -0.20 -2 1 -2 1.20 0 1.60 -0.80 1 -2 -0.60 -1 0 -2 1.40 -2 3.20 0 14.20 -21.40 12.60 -24.20 -0.80 -1 -0.20 -1.80 1 -1.80 1.20 0 1.60 -1 1 -2 -0.60 -1.20 -0.20 -2 1 -2 1.20 0 1.60 -1 1 -2 -0.60 -1.20 -0.20 -2 1 -2 1.20 0 1.60 -0.80 1 -2 -0.60 -1 -0.20 -2 1 -2 1.20 0 1.60 -0.80 1 -2 -0.60 -1 0 -2 1.40 -2 3.20 0 14.20 -21.40 12.60 -24.20 -0.80 -1 -0.20 -1.80 1 -1.80 1.20 0 1.60 -0.80 1 -2 -0.60 -1 -0.20 -2 1 -2 1.20 0 1.60 -0.80 1 -2 -0.60 -1 -0.20 -2 1 -2 1.20 0 1.80 -0.80 1 -1.80 -2 -3.60 2.40 -4 5.60 -0.60 6.40 7.20 31.40 58 30.20 61.20 -1.60 4 -4 4.20 -6.40 0 -1.40 -2.40 -14.80 21.60 -54.60 97.40 -29 55.20 -53 101.20 -53.40 102.20 -0.40 0.80 0.60 1.60 2.40 1.60 4.80 0 4.20 2.20 -6.80 24 l-10 20 -30.60 0 c-18.20 0 -31.60 -1 -33.40 -2.20z"/>
  <path d="M2414.20 760.80 c-2.40 -2.80 -2.60 -20.20 -2 -106.60 l0.80 -103.20 185 0.40 c101.80 0.40 185.40 0.80 186 0.80 0.60 0.20 2 0.60 3 0.80 1.20 0.40 2.60 0.80 3.60 1 0.80 0.20 2 0.60 3 1 10.80 3 23.40 13.80 27.40 24 1.40 3.20 3.20 10.80 4 16.60 l1.40 10.40 -8.80 0 c-13.80 0 -23.60 -2.20 -23.60 -5.20 0 -2.40 -28 -2.80 -174 -2.80 l-174 0 0 61 c0 52.80 0.40 61 3 61 2.40 0 3 3.80 3 22 l0 22 -17.40 0 c-13.40 -0.20 -18.20 -1 -20.40 -3.20z"/>
  <path d="M14614.60 724.60 l-6.60 -0.80 -0.40 -85 c-0.60 -70 -0.20 -84.60 2 -83.80 1.60 0.60 98 1 214.60 1 l211.80 0 0 22.60 0 22.40 -197.40 0 -197.60 0 -0.60 39.60 c-0.40 34.20 0 39.40 2.60 39.40 2.60 0 3 3.80 3 23 l0 23 -12.40 -0.40 c-7 0 -15.60 -0.60 -19 -1z"/>
  <path d="M18986 724.20 c-8.20 -0.60 -14.80 -1.80 -14.40 -2.60 0.20 -1 0.40 -38.40 0.40 -83.60 l0 -82 213 -0.40 213 -0.60 0 22.40 0 22.60 -196.40 0.40 -196.60 0.60 -0.60 39.60 c-0.40 34.20 0 39.40 2.60 39.40 2.60 0 3 3.80 3 23 0 22.60 0 23 -4.40 22.60 -2.60 -0.20 -11.40 -0.80 -19.60 -1.40z"/>
  <path d="M17151.40 720.80 c-0.80 -0.80 -1.40 -46.40 -1.40 -101.20 l0 -99.60 16 0 16 0 0 78 c0 68 0.40 78 3 78 2.40 0 3 3.80 3 22.60 l0 22.40 -17.60 0.60 c-9.60 0.40 -18.20 0 -19 -0.80z"/>
  <path d="M15067.60 660.60 c-0.40 -14.80 0 -28 0.60 -29 0.80 -1.20 2.80 -1.60 4.40 -1 1.80 0.60 3.40 0.20 3.80 -0.80 0.40 -1 3.40 -2.20 6.60 -2.40 3.40 -0.20 6.60 -1.20 7.20 -2 0.60 -0.80 3.80 -1.80 7 -2 3.20 -0.20 6.40 -1.20 7.20 -2.20 0.80 -1.20 4.40 -2 8 -2 l6.60 0 0.20 -21.60 c0.20 -12.20 -0.40 -21.60 -1.60 -21.60 -1 0 -1.20 -3 -0.40 -7 0.80 -4.60 0.40 -7 -1 -7 -1.20 0 -1.60 -2.20 -0.80 -6 0.60 -3.60 0.20 -6 -1 -6 -1 0 -1.60 -1.80 -1 -4.20 1 -3.80 1.40 -3.80 7.40 2 18.80 18.20 29 47.80 30.60 88.40 l1.20 27 -42.20 12.20 -42.20 12 -0.60 -26.80z"/>
  <path d="M16608 663.80 c0 -26 1.80 -31.40 10 -28.80 2.40 0.80 4 0.40 4 -1 0 -1.60 1.80 -2 5 -1.20 3.20 0.80 5 0.40 5 -1 0 -1.40 1.80 -1.80 5 -1 3.20 0.80 5 0.40 5 -1 0 -1.40 1.80 -1.80 5 -1 3.20 0.80 5 0.40 5 -1 0 -1.40 1.80 -1.80 5 -1 3.20 0.80 5 0.40 5 -1 0 -1.40 1.80 -1.80 4.20 -1.20 2.60 0.60 5.60 -0.40 8 -2.80 4.20 -4.20 5 -7.80 1.60 -7.80 -1.60 0 -1.80 -5 -0.80 -17 1 -12 0.60 -17 -0.80 -17 -1.40 0 -1.80 -2.80 -1 -8 0.80 -5.40 0.60 -8 -1 -8 -1.40 0 -1.80 -1.80 -1 -5.20 0.80 -3.20 0.40 -5.80 -1 -6.60 -1.60 -1 -1.80 -3 -0.60 -6.20 1.60 -4.40 2 -4.20 9.80 5.20 18.40 21.40 26.40 46.60 28 88.80 l1.20 29.20 -48.80 9.40 c-26.80 5.20 -49.40 9.60 -50.20 9.40 -1 0 -1.60 -10.80 -1.60 -24.20z"/>
  <path d="M19431 686.40 c-1.60 -1.80 -1 -51.20 0.60 -54 1 -1.40 4.40 -2.80 7.60 -3 3.20 -0.20 6.40 -1.20 7 -2 0.60 -0.80 3.80 -1.80 7 -2 3.20 -0.20 6.40 -1.20 7 -2.20 0.80 -1 4.20 -1.80 7.60 -2 3.40 0 6.20 -0.80 6.20 -1.40 0 -0.80 1.60 -1.80 3.60 -2.20 3.20 -1 4 -4 5.20 -19.80 1 -12.60 0.80 -19 -0.60 -19.40 -1.40 -0.40 -1.80 -3.80 -1 -8.60 0.80 -5 0.60 -7.80 -0.80 -7.80 -1.40 0 -1.80 -2.20 -1 -6 0.60 -3.60 0.20 -6 -1 -6 -1.20 0 -1.60 -2 -0.80 -4.40 1 -4 1.60 -3.60 9.40 5 10.80 12.40 19.80 30.80 23.80 49.40 3.60 16.60 7.40 60.20 5.40 62.40 -1.80 2 -84 25.20 -85.20 24z"/>
  <path d="M6931.20 603.60 c-0.80 -3.40 -7.60 -3.60 -107 -3.60 l-106.20 0 0 -22 0 -22 122 0 122 0 0 25.80 0 25.60 -14.80 -0.20 c-12.40 -0.20 -15.20 -0.80 -16 -3.60z"/>
  <path d="M10716.60 606.60 c-9.40 -0.60 -12.60 -1.60 -12.60 -3.60 0 -2.60 -14.80 -3 -107 -3 l-107 0 0 -22 0 -22 121.80 0 122 0 0.60 22.80 c0.60 25.60 0.20 29.40 -3 28.80 -1.40 -0.20 -8 -0.60 -14.80 -1z"/>
  <path d="M18235.60 606.60 c-8.40 -0.60 -11.60 -1.60 -11.60 -3.60 0 -2.60 -14.80 -3 -106 -3 l-106 0 0 -22 0 -22 122 0 122 0 0 26 c0 25.80 0 26 -4.40 25.60 -2.60 -0.20 -9.80 -0.60 -16 -1z"/>
  <path d="M618 603 c0 -2.60 -13 -3 -105.80 -3 l-106 0 -0.60 -22 -0.60 -22 121.60 -0.40 121.40 -0.60 0 25.60 0 25.40 -15 0 c-12 0 -15 -0.60 -15 -3z"/>
 </g>
 <g fill="#ff00ff">
  <path d="M626.60 1032.60 l-8.60 -0.80 0 -216 0 -215.80 15 0 15 0 0.40 216.60 0.60 216.60 -7 0.20 c-3.80 0 -10.80 -0.40 -15.40 -0.80z"/>
  <path d="M2850.80 960.40 l-86 -73.40 9.60 -0.60 9.60 -0.60 85 72.60 c79.80 68 84.80 72.60 79.60 73.80 -3 0.80 -7 1.40 -8.60 1.60 -1.60 0 -41.80 -32.80 -89.20 -73.40z"/>
  <path d="M3264.40 1032.60 l-8.40 -0.80 0.40 -300.40 0.60 -300.40 31.40 -0.60 31.60 -0.60 223.40 199.60 c222.40 198.60 256.20 230 280.80 260.60 7 8.80 13 14.80 13.40 13.40 0.20 -1.60 -1 -15.60 -2.80 -31.60 -3 -24.80 -3.60 -57.20 -4.20 -235.40 l-0.80 -206.40 46 0 46.20 0 0 22 0 22 -29.80 0 -29.60 0 -1.20 5.60 c-0.60 3 -0.20 98.60 0.80 212.40 1.60 184.40 2.60 220.60 6.80 251 l1.20 8 -6.60 -7 c-3.60 -4 -15.20 -17 -25.60 -28.80 -19 -21.60 -72.40 -70.40 -366 -333 l-121 -108.20 -31.40 0 -31.60 0 0 280 0 280 -7.40 -0.40 c-4.20 -0.20 -11.40 -0.60 -16.20 -1z"/>
  <path d="M4853.60 1032.60 l-15.60 -0.80 0 -301 0 -301 205.60 0.80 c212.80 0.80 214 0.80 258.40 9.60 78.20 15.60 136.40 53.80 175 114.80 2.60 4.20 -0.40 2.20 -10.20 -6.80 -35 -32 -77 -52 -130 -62 -58.60 -11 -53.40 -10.80 -267 -11.60 l-199.40 -0.80 -1.40 30.60 c-0.60 16.80 -1 142.80 -0.60 280.20 0.40 137.20 0.60 249.20 0.60 249 0 -0.20 -7 -0.80 -15.40 -1z"/>
  <path d="M5749.20 1032.40 c-0.40 -0.80 73 -136.60 163.20 -302 l164 -300.40 54.20 0.40 54 0.60 11.40 21 11.60 21 -50.40 1 -50.20 1 -152.20 279 -152.40 279 -26.20 0.40 c-14.40 0.20 -26.40 -0.20 -27 -1z"/>
  <path d="M6409.60 1031.60 c-5.20 -4.20 -32 -57.20 -29.60 -58.60 1 -0.60 2.80 -0.80 3.80 -0.20 1.80 1.20 32.20 58 32.20 60.20 0 1.80 -3.20 1 -6.40 -1.40z"/>
  <path d="M6939.60 1032.60 l-7.60 -0.80 0 -216 0 -216 15 0.40 15 0.40 0 216.60 0 216.80 -7.40 -0.40 c-4.20 -0.20 -11 -0.60 -15 -1z"/>
  <path d="M7463.60 1032.60 c-10.80 -0.40 -19.60 -1.40 -19.40 -2.20 0 -0.80 73.60 -136 163.40 -300.40 l163.40 -299 54 -0.60 54 -0.40 12.40 22 12.20 22 -50.40 0 -50.60 0 -152.80 280 -152.80 280 -7 -0.40 c-3.80 -0.20 -15.80 -0.80 -26.40 -1z"/>
  <path d="M8104.80 1032.40 c-2.40 -1.60 -30.80 -55.20 -30.80 -58.20 0 -1.20 1.20 -2.20 2.60 -2.20 3.20 0 34.20 58 32 60.20 -0.80 0.80 -2.60 1 -3.80 0.20z"/>
  <path d="M9027.60 1032.60 l-15.60 -0.80 0 -300.80 0 -301 50 0 50 0 0 22 0 22 -33.80 0 -33.80 0 -1.20 30.60 c-0.80 16.60 -1.20 142.60 -0.80 280 0.40 137.20 0.60 249.20 0.60 249 0 -0.20 -7 -0.80 -15.40 -1z"/>
  <path d="M9524.80 1032.40 l-14.20 -0.60 -1.20 -118.40 c-0.80 -65.20 -1.40 -200.60 -1.40 -300.80 l0 -182.60 32 0 32 0 123.40 110.40 c363.20 324.60 355 317 381.20 350.20 6.80 8.80 12.60 14.60 13 13 0.20 -1.60 -1 -15.80 -2.80 -31.80 -3 -25 -3.60 -56 -4.20 -235.20 l-0.80 -206.60 46 0 46.20 0 0 22 0 22 -29.80 0 -29.80 0 -1.40 70.60 c-1.80 97.20 2 351.20 5.80 381.40 2.60 20 2.80 26.80 0.60 23.80 -7 -9.60 -39 -44.60 -57.80 -63 -13.60 -13.40 -111.40 -102 -217.60 -197 -106.20 -94.80 -203.80 -182.20 -217 -194.20 l-24 -21.60 -31.40 0 -31.60 0 -0.40 279.60 -0.60 279.40 -14.20 -0.60z"/>
  <path d="M10719.60 1032.60 l-15.60 -0.80 0 -215.80 0 -216 15 0 15 0 0.40 217 c0.40 119.40 0.60 216.80 0.60 216.60 0 -0.20 -7 -0.80 -15.40 -1z"/>
  <path d="M12947.60 1032.60 l-15.60 -0.80 0 -300.80 0 -301 50 0 50 0 0 22 0 22 -33.80 0 -33.80 0 -1.20 30.60 c-0.80 16.60 -1.20 142.60 -0.80 280 0.40 137.20 0.60 249.20 0.60 249 0 -0.20 -7 -0.80 -15.40 -1z"/>
  <path d="M17026.40 1032.60 l-8.40 -0.80 0.40 -300.40 0.60 -300.40 50 0 50 0 0.60 21.60 0.60 21.40 -35.20 0 -35 0 0 280 0 280 -7.40 -0.40 c-4.20 -0.20 -11.40 -0.60 -16.20 -1z"/>
  <path d="M17603.60 1032.60 l-7.60 -0.80 0 -92 0 -91.80 15 0 15 0 0 93 0 93 -7.40 -0.40 c-4.20 -0.20 -11 -0.60 -15 -1z"/>
  <path d="M18233.60 1032.60 l-7.60 -0.80 0 -191.60 c0 -105.40 -0.60 -202.60 -1.40 -216 l-1.20 -24.40 16.20 0.40 16.40 0.40 0 216.60 0 216.80 -7.40 -0.40 c-4.20 -0.20 -11 -0.60 -15 -1z"/>
  <path d="M2283.40 1030.60 c-2 -1.80 -1.60 -595.20 0.20 -598.20 1.40 -2 52 -2.40 260.60 -1.80 285.40 0.60 270.80 0 298.80 13.20 19.40 9 36.20 26.20 44.20 45.20 l2.80 6.80 -6.60 -3.80 c-10.40 -6 -30.40 -12 -51.40 -15 -16.40 -2.60 -58.20 -3 -268.20 -2.60 l-248.80 0.60 -0.60 278.60 -0.40 278.40 -14.60 0 c-8.20 0 -15.40 -0.60 -16 -1.40z"/>
  <path d="M13429 1029.60 c-0.60 -1.40 -0.80 -136.60 -0.60 -300.60 l0.60 -298 31.40 -0.60 31.40 -0.60 94.60 84.60 c236.40 211.20 360.80 323.20 375.80 338.20 9 9 23.20 24.60 31.40 34.40 8.20 10 15.60 18.20 16.20 18.60 0.80 0.20 0.20 -8.40 -1.20 -19 -5.20 -40.60 -6.60 -99 -6.60 -275 l0 -181.60 46 0 46 0 0 22 0 22 -29.80 0 -29.80 0 -1.40 58.40 c-2 85.60 2 364.40 5.80 393.60 2.60 20 2.80 26.80 0.60 23.80 -7.20 -9.60 -35.40 -41.60 -47 -53.40 -13 -13 -132.40 -120.40 -414.40 -373 l-55 -49.40 -31.40 0 -31.60 0 0 279 0 279 -15 0 c-10.20 0 -15.40 -0.80 -16 -2.40z"/>
  <path d="M15485 1029.60 c-0.60 -1.40 -0.80 -136.60 -0.60 -300.60 l0.60 -298 50.60 -0.60 50.40 -0.40 0 22 0 22 -35 0 -35 0 0 279 0 279 -15 0 c-10.20 0 -15.40 -0.80 -16 -2.40z"/>
  <path d="M1276.20 999.80 c-10.40 -12.80 -18.40 -29.60 -23.20 -48.80 -3.40 -13 -3.80 -32.60 -4.80 -265 -0.80 -138 -1 -252.20 -0.60 -253.60 0.60 -1.80 12.60 -2.40 50.60 -2.40 l49.80 0 0 22 0 22 -34 0 -34 0 -1.20 5 c-0.60 2.80 -0.80 114.60 -0.20 248.60 0.80 216 1.40 245.40 4.20 261 2 9.80 3 18.80 2.80 19.80 -0.40 1.20 -4.80 -2.60 -9.40 -8.60z"/>
  <path d="M11354.20 1000.80 c-9.40 -10.80 -18.40 -28.20 -23.20 -45.80 -4.60 -16.60 -7.40 -149.60 -6.40 -304 0.80 -110 1.20 -119.20 5 -136.40 12 -53.60 41.40 -76.40 107.40 -82.80 14.40 -1.40 102.40 -1.80 257 -1.40 234.40 0.60 235 0.60 250.40 5 32.40 9.20 50.20 21.60 61.40 42.60 3.60 6.80 6.20 12.60 5.80 13 -0.40 0.40 -7.80 -1.40 -16.40 -4 -37.80 -12 -27.40 -11.60 -280.20 -12.40 -267.60 -1 -272.20 -0.80 -306 15.20 -30.20 14.20 -43.80 37.40 -51 87.20 -1.20 8.60 -2 86.20 -2 199.40 0 176.40 0.20 186.40 4 208.80 2.20 12.80 3.60 23.80 3.20 24.20 -0.40 0.40 -4.40 -3.40 -9 -8.60z"/>
  <path d="M14493.20 1000 c-10.20 -10.80 -17.20 -24.80 -22 -43.40 -4.60 -17.60 -7.80 -55.60 -5.80 -70.60 l1.60 -12.80 40 -9.20 c22 -5.20 42.40 -9.80 45.60 -10.60 l5.40 -1.40 0 25.80 0 25.80 -22.40 5.20 c-12.40 2.80 -25.60 5.80 -29 6.40 -3.60 0.80 -7.60 2.60 -8.80 4 -3.20 4 -1.20 50.60 3.20 72.60 1.80 9.20 2.80 17 2.40 17.40 -0.40 0.40 -5 -3.60 -10.20 -9.20z"/>
  <path d="M16003.40 1001.60 c-10 -10.40 -20.20 -31.60 -24.80 -51.40 -3.40 -14 -3.60 -30.40 -3.60 -219.20 0 -189.80 0.20 -205 3.60 -219.40 7.80 -32.80 24 -54.60 50 -66.60 31 -14.40 19 -13.60 269.40 -14.60 159.80 -0.40 230.80 0 245 1.60 35.60 4.20 59.80 14.20 75.60 31.80 7.60 8.40 17 25.20 15.20 27 -0.60 0.60 -8 -1.20 -16.40 -3.80 -37.60 -12 -33 -11.80 -268.40 -12.60 -143.60 -0.40 -222.60 0.20 -235.80 1.60 -38.20 4 -59 12.20 -77.20 30 -13.80 13.40 -21.20 28.40 -26.20 52.80 -3.60 17 -3.80 30.40 -3.80 216.20 0.20 182.80 0.40 199.40 3.80 216.60 2 10 3.20 18.40 2.60 18.40 -0.60 0 -4.60 -3.80 -9 -8.40z"/>
  <path d="M18857.60 1000.20 c-18.60 -20.80 -27.20 -48.60 -29 -95.40 -1.20 -28.60 -1 -30.40 2.60 -31.40 2 -0.80 21.80 -5.40 43.80 -10.40 22 -5 41.60 -9.60 43.60 -10.20 3.20 -1 3.40 1 3.40 24.80 l0 25.80 -23.40 5.40 c-13 3 -27.20 6.40 -31.40 7.60 l-7.80 2 1.20 30.20 c0.80 16.80 2.60 37.20 4.20 45.40 1.60 8.20 2.60 15.20 2.20 15.60 -0.20 0.20 -4.60 -4 -9.40 -9.40z"/>
  <path d="M1412 990.20 c-1 -2.20 -2 -12.60 -2 -23 l0 -19.20 187.60 0.40 187.80 0.60 1.20 -77.80 c0.80 -42.80 1.40 -159.60 1.40 -259.60 l0 -181.60 49 0 49 0 0 22 0 22 -34 0 -34 0 -0.40 259.60 -0.60 259.40 -201.40 0.60 c-197.60 0.40 -201.40 0.40 -203.60 -3.40z"/>
  <path d="M5016 992.60 l-15 -0.80 0.60 -21.80 0.60 -21.80 111.40 -0.80 c118 -0.80 127.20 -1.40 166.80 -11.40 69.40 -17.80 113 -56.80 130.60 -116.80 8.80 -30.80 11.60 -57.60 10.40 -101.20 -0.60 -21.40 -2.60 -46.20 -4.20 -55 -1.60 -8.60 -2.60 -16.20 -2.20 -16.60 0.40 -0.40 4.40 1.80 8.80 4.80 6.40 4.60 9.20 8.80 14.20 21.60 12.20 30.60 14.80 47.20 14.80 96.20 0.20 57.20 -4.60 85.60 -19.80 118.40 -18.80 40.20 -46.20 65.40 -91.20 83.40 -21 8.40 -52.80 16.20 -77.80 19.20 -18.80 2 -219 4.20 -248 2.60z"/>
  <path d="M11539.60 992.60 l-51.60 -0.60 0 -22 0 -22 217.60 0 217.40 0 0.60 -174 0.40 -174 15 0 15 0 -0.40 196.60 -0.60 196.40 -181 0 c-99.60 0 -204.20 -0.20 -232.40 -0.40z"/>
  <path d="M14770.60 992.60 l-150.60 -0.60 0 -22 0 -22 193.60 -0.40 193.40 -0.60 0.60 -45.40 0.40 -45.60 15 0 15 0 -0.40 68.60 -0.60 68.40 -58 0 c-31.80 0 -125.80 -0.20 -208.40 -0.40z"/>
  <path d="M16136 970 l0 -22 204.60 0 204.40 0 1 -43.40 1 -43.60 14.60 -0.40 14.40 -0.20 0 65.80 0 65.80 -220 0 -220 0 0 -22z"/>
  <path d="M18984 970.60 l0 -21.60 87.40 0.40 c48.20 0.40 135.40 -0.20 193.60 -1 l106 -1.40 0.60 -45.40 0.40 -45.60 15 0 15 0 0 68 0 68 -209 0 -209 0 0 -21.40z"/>
  <path d="M6052 851.40 c0 -0.40 5 -10.40 11.20 -22 l11 -21.40 107.80 -0.40 107.80 -0.60 -53.80 -103 c-32.20 -61.40 -53.20 -103.60 -52.20 -104.60 2.40 -2.40 6.80 4.60 31.80 50.80 23.40 43.40 101.60 193.20 103.60 198.40 1.20 3.20 -6 3.40 -133 3.40 -73.80 0 -134.20 -0.20 -134.20 -0.60z"/>
  <path d="M7757.80 830 l11.20 -22 107.80 0 c101.60 0 107.60 -0.20 106.40 -3.40 -0.80 -2 -24.80 -47.40 -53.40 -101.20 -28.40 -53.60 -51.80 -98.60 -51.80 -100 0.20 -12.40 7.60 0.20 69.80 118.20 36.40 69.40 66.20 127 66.20 128.20 0 1.60 -37.80 2.20 -133.60 2.20 l-133.60 0 11 -22z"/>
  <path d="M16302.40 733.60 l0.60 -38.60 171 0 171 0 1 21.60 c0.60 12 0.60 22.20 0.20 22.60 -0.40 0.40 -71 0.80 -156.60 0.80 l-155.60 0 0 16 0 16 -16 0 -16 0 0.40 -38.40z"/>
  <path d="M2446 742 l0 -21.80 154.60 -0.60 c172 -0.80 164 -0.20 178.60 -14.60 12.40 -12.40 15 -25 15.40 -70.40 l0.40 -37 11.80 1.20 c6.40 0.60 13.60 1.20 15.60 1.20 4 0 4 1.60 3.20 64.60 -0.60 57.60 -1.20 65.20 -4.40 71.40 -4.80 9.20 -10.80 15.60 -18.20 19.60 -16 8.20 -19 8.40 -191.40 8.40 l-165.60 0 0 -22z"/>
  <path d="M14517.40 736.20 c-24.20 -26 -30.60 -58.80 -28.80 -150.60 1 -60 3.80 -79.80 14.40 -103.40 10.80 -23.60 34.60 -40.20 69.20 -47.60 15.60 -3.40 31.20 -3.60 215.80 -3.60 184.40 0 200.20 0.20 215.80 3.60 40.60 8.80 63 25.20 74 54 l1.80 4.40 -16.40 -5.40 c-37 -12.40 -37 -12.40 -234.20 -13.20 -187.80 -0.60 -204.20 -0.20 -235.80 7.80 -44.80 11.40 -60.60 31 -70.80 87.80 -5 28.60 -4.40 124.40 1 154.60 2.20 11.80 3.80 21.40 3.60 21.40 -0.20 0 -4.60 -4.40 -9.60 -9.80z"/>
  <path d="M15076.20 739.60 c-4.80 -2 -15.60 -5.80 -24 -8.20 -15.20 -4.40 -15.80 -4.40 -213.60 -5 l-198.60 -0.60 0 -23 0 -23 178.60 0.80 c171.40 0.60 179.20 0.80 196.40 4.80 20.60 4.60 39.60 13.60 50.80 23.60 7.40 6.80 21.20 29.40 19.80 32.80 -0.40 0.80 -4.60 0 -9.40 -2.20z"/>
  <path d="M18881 735.60 c-8.80 -10.20 -21.60 -36.40 -25.20 -51.60 -2.20 -8.20 -2.80 -29.40 -2.80 -84 0 -69 0.20 -74 4.60 -90.80 10.40 -41.40 30 -62.20 67.80 -72 25.60 -6.60 51.40 -7.40 243.60 -6.80 188 0.60 190.20 0.80 205.40 5 36.40 10.20 57.60 27 67.40 53 l2 5.20 -16 -5.80 c-35.60 -13 -32.60 -12.80 -247.80 -12.80 -215.20 0 -214 0 -240.60 12.60 -31.60 15 -43.60 33 -52.80 79.40 -4.60 23 -4.80 112.20 -0.20 151.60 1.60 14 2.60 25.40 2.40 25.40 -0.20 0 -3.80 -3.80 -7.80 -8.40z"/>
  <path d="M19435 737.80 c-31 -12 -26.80 -11.80 -238 -11.80 l-193 0 0 -23 0 -23 168.60 0 c110 0 174.60 0.80 186.40 2.20 33.40 4 57.40 14.20 73.80 31 7.40 7.60 18 25.60 16.80 28.60 -0.40 0.80 -6.80 -1 -14.60 -4z"/>
  <path d="M17183.40 720.60 c-0.80 -0.60 -1.40 -11 -1.40 -23 l0 -21.60 206 -0.40 206 -0.60 0.60 -122 0.40 -122 49.60 -0.60 49.40 -0.40 0 22 0 22 -34 0 -34 0 -0.40 123.60 -0.60 123.40 -220.20 0.60 c-121 0.20 -220.80 -0.20 -221.40 -1z"/>
  <path d="M343.40 510.60 c-1.80 -1.60 -1.80 -38.40 -0.20 -62.20 l1.40 -18.40 325.80 0 325.80 0 -0.60 21.60 -0.60 21.40 -310.40 0.60 -310.60 0.40 0 19 0 19 -14.60 0 c-8.20 0 -15.40 -0.60 -16 -1.40z"/>
  <path d="M6654.80 509.40 c-0.40 -1.40 -0.60 -19.60 -0.40 -40.40 l0.60 -38 326.60 -0.60 326.40 -0.40 0 22 0 22 -311 0 -311 0 0 19 0 19 -15 0 c-10.40 0 -15.40 -0.80 -16.20 -2.60z"/>
  <path d="M10428 471 l0 -41 326 0 326 0 0 22 0 22 -310 0 -309.80 0 -0.60 18.60 -0.60 18.40 -15.40 0.60 -15.60 0.60 0 -41.20z"/>
  <path d="M17948.80 509.40 c-0.40 -1.40 -0.60 -19.60 -0.40 -40.40 l0.60 -38 326 0 326 0 0.60 21.60 0.60 21.40 -311.20 0 -311 0 0 19 0 19 -15 0 c-10.40 0 -15.40 -0.80 -16.20 -2.60z"/>
 </g>
</svg>